<svg width="101" height="58" viewBox="0 0 101 58" fill="none" xmlns="http://www.w3.org/2000/svg">
<mask id="path-1-inside-1" fill="white">
<path d="M27.759 11.8133C27.2359 11.8885 26.7673 12.1201 26.4021 12.4645C26.037 12.1201 25.5684 11.8885 25.0453 11.8133L21.95 11.3685L20.5685 8.60036C19.6534 6.76499 17.0245 6.76599 16.1092 8.60017L14.7279 11.3685L11.6322 11.8133C9.05525 12.2369 8.85628 14.4754 10.2563 16.0473L12.4862 18.1973L11.9605 21.2291C11.6915 24.2082 13.2772 24.4631 15.5664 23.848L18.339 22.4062L21.1115 23.848C22.7292 24.6895 25.0851 23.349 24.7174 21.2291L24.1917 18.1973L26.4021 16.0662L28.6126 18.1973L28.0867 21.2291C27.7192 23.349 30.0749 24.6895 31.6926 23.848L34.4653 22.4062L37.2379 23.848C39.4987 24.872 41.1402 23.5786 40.8438 21.2291L40.3179 18.1973L42.5283 16.0662L44.7388 18.1973L44.2131 21.2291C43.8455 23.349 46.2012 24.6895 47.8189 23.848L50.5915 22.4064L53.364 23.848C55.6157 24.8222 57.4562 23.7776 56.9699 21.2291L56.4442 18.1973L58.6549 16.0662L60.8653 18.1973L60.3394 21.2291C59.9719 23.349 62.3276 24.6895 63.9453 23.848L66.718 22.4062L69.4906 23.848C71.98 24.7725 73.3747 23.6781 73.0965 21.2291L72.5706 18.1973L74.7812 16.0662L76.9915 18.1973L76.4658 21.2291C76.0983 23.349 78.454 24.6895 80.0716 23.848L82.8442 22.4062L85.6168 23.848C87.8998 24.9217 89.5911 23.7279 89.2226 21.2291L88.6969 18.1973L90.9271 16.0473C92.5756 14.3759 92.0782 12.2369 89.5508 11.8133L86.4553 11.3685L85.074 8.60017C83.9698 6.46653 81.7353 6.35291 80.6147 8.60017L79.2332 11.3685L76.1379 11.8133C75.6147 11.8885 75.1462 12.1201 74.781 12.4645C74.4161 12.1201 73.9473 11.8885 73.4242 11.8133L70.3287 11.3685L68.9474 8.60017C68.0019 6.51627 65.6093 6.35351 64.4881 8.60017L63.1068 11.3685L60.0113 11.8133C59.4882 11.8885 59.0194 12.1201 58.6545 12.4643C58.2893 12.1201 57.8208 11.8883 57.2976 11.8133L54.2023 11.3685L52.821 8.60017C51.7354 6.36704 49.4828 6.35331 48.3615 8.60017L46.9802 11.3685L43.8849 11.8133C43.3618 11.8885 42.8932 12.1201 42.5281 12.4643C42.1632 12.1199 41.6944 11.8883 41.1713 11.8133L38.0764 11.3685L36.6951 8.60017C35.6685 6.36704 33.357 6.35331 32.2358 8.60017L30.8545 11.3685L27.759 11.8133ZM21.9259 16.2359C21.3336 16.8066 21.0638 17.6304 21.2042 18.4386L21.6032 20.7398L19.4912 19.6412C19.1305 19.454 18.7349 19.3601 18.3392 19.3601C17.9434 19.3601 17.5474 19.454 17.1863 19.6414L15.0745 20.7396L15.4735 18.4388C15.614 17.6302 15.3441 16.8064 14.752 16.2359L13.0768 14.6208L15.407 14.286C16.2165 14.1698 16.9171 13.6651 17.2814 12.9355L18.3388 10.8164L19.3959 12.9351C19.7597 13.6647 20.4605 14.1696 21.2701 14.286L23.6007 14.621L21.9259 16.2359ZM79.9133 14.2862C80.7229 14.1698 81.4237 13.6649 81.7872 12.9357L82.8446 10.8166L83.9022 12.9361C84.2663 13.6653 84.9669 14.17 85.7761 14.2862L88.1066 14.621L86.4316 16.2359C85.8392 16.8066 85.5694 17.6304 85.7099 18.4386L86.1088 20.7396L83.9967 19.6411C83.275 19.2662 82.4134 19.2666 81.6921 19.6414L79.5804 20.7398L79.9793 18.439C80.1198 17.6304 79.85 16.8066 79.2578 16.2361L77.5826 14.6212L79.9133 14.2862ZM63.7865 14.2862C64.5959 14.17 65.2965 13.6653 65.6609 12.9357L66.7182 10.8166L67.7756 12.9361C68.1397 13.6653 68.8403 14.17 69.6496 14.2862L71.98 14.6212L70.3046 16.2363C69.7129 16.8068 69.4434 17.63 69.5833 18.4386L69.9825 20.7396L67.8705 19.6412C67.1488 19.2662 66.2873 19.2664 65.5656 19.6414L63.4538 20.7396L63.8532 18.4382C63.9928 17.6298 63.7234 16.8068 63.1315 16.2361L61.4563 14.621L63.7865 14.2862ZM47.6603 14.2862C48.47 14.1698 49.1708 13.6649 49.5343 12.9357L50.5917 10.8164L51.6489 12.9353C52.0126 13.6649 52.7134 14.1698 53.523 14.2862L55.8537 14.6212L54.1787 16.2359C53.5863 16.8066 53.3165 17.6304 53.457 18.4386L53.8559 20.7398L51.744 19.6412C51.0223 19.2666 50.1609 19.2662 49.4392 19.6414L47.3275 20.7398L47.7264 18.439C47.8669 17.6304 47.5971 16.8066 47.0049 16.2361L45.3297 14.6212L47.6603 14.2862ZM33.408 12.9357L34.4653 10.8166L35.5227 12.9361C35.8868 13.6653 36.5874 14.17 37.3967 14.2862L39.7271 14.621L38.0517 16.2363C37.4599 16.8068 37.1905 17.63 37.3304 18.4386L37.7296 20.7396L35.6176 19.6412C35.2569 19.4538 34.8611 19.3601 34.4653 19.3601C34.0696 19.3601 33.6736 19.454 33.3126 19.6414L31.2009 20.7396L31.6002 18.4382C31.7399 17.6298 31.4705 16.8068 30.8785 16.2361L29.2034 14.6212L31.5336 14.2862C32.3432 14.17 33.0436 13.6653 33.408 12.9357Z"/>
</mask>
<path d="M27.759 11.8133C27.2359 11.8885 26.7673 12.1201 26.4021 12.4645C26.037 12.1201 25.5684 11.8885 25.0453 11.8133L21.95 11.3685L20.5685 8.60036C19.6534 6.76499 17.0245 6.76599 16.1092 8.60017L14.7279 11.3685L11.6322 11.8133C9.05525 12.2369 8.85628 14.4754 10.2563 16.0473L12.4862 18.1973L11.9605 21.2291C11.6915 24.2082 13.2772 24.4631 15.5664 23.848L18.339 22.4062L21.1115 23.848C22.7292 24.6895 25.0851 23.349 24.7174 21.2291L24.1917 18.1973L26.4021 16.0662L28.6126 18.1973L28.0867 21.2291C27.7192 23.349 30.0749 24.6895 31.6926 23.848L34.4653 22.4062L37.2379 23.848C39.4987 24.872 41.1402 23.5786 40.8438 21.2291L40.3179 18.1973L42.5283 16.0662L44.7388 18.1973L44.2131 21.2291C43.8455 23.349 46.2012 24.6895 47.8189 23.848L50.5915 22.4064L53.364 23.848C55.6157 24.8222 57.4562 23.7776 56.9699 21.2291L56.4442 18.1973L58.6549 16.0662L60.8653 18.1973L60.3394 21.2291C59.9719 23.349 62.3276 24.6895 63.9453 23.848L66.718 22.4062L69.4906 23.848C71.98 24.7725 73.3747 23.6781 73.0965 21.2291L72.5706 18.1973L74.7812 16.0662L76.9915 18.1973L76.4658 21.2291C76.0983 23.349 78.454 24.6895 80.0716 23.848L82.8442 22.4062L85.6168 23.848C87.8998 24.9217 89.5911 23.7279 89.2226 21.2291L88.6969 18.1973L90.9271 16.0473C92.5756 14.3759 92.0782 12.2369 89.5508 11.8133L86.4553 11.3685L85.074 8.60017C83.9698 6.46653 81.7353 6.35291 80.6147 8.60017L79.2332 11.3685L76.1379 11.8133C75.6147 11.8885 75.1462 12.1201 74.781 12.4645C74.4161 12.1201 73.9473 11.8885 73.4242 11.8133L70.3287 11.3685L68.9474 8.60017C68.0019 6.51627 65.6093 6.35351 64.4881 8.60017L63.1068 11.3685L60.0113 11.8133C59.4882 11.8885 59.0194 12.1201 58.6545 12.4643C58.2893 12.1201 57.8208 11.8883 57.2976 11.8133L54.2023 11.3685L52.821 8.60017C51.7354 6.36704 49.4828 6.35331 48.3615 8.60017L46.9802 11.3685L43.8849 11.8133C43.3618 11.8885 42.8932 12.1201 42.5281 12.4643C42.1632 12.1199 41.6944 11.8883 41.1713 11.8133L38.0764 11.3685L36.6951 8.60017C35.6685 6.36704 33.357 6.35331 32.2358 8.60017L30.8545 11.3685L27.759 11.8133ZM21.9259 16.2359C21.3336 16.8066 21.0638 17.6304 21.2042 18.4386L21.6032 20.7398L19.4912 19.6412C19.1305 19.454 18.7349 19.3601 18.3392 19.3601C17.9434 19.3601 17.5474 19.454 17.1863 19.6414L15.0745 20.7396L15.4735 18.4388C15.614 17.6302 15.3441 16.8064 14.752 16.2359L13.0768 14.6208L15.407 14.286C16.2165 14.1698 16.9171 13.6651 17.2814 12.9355L18.3388 10.8164L19.3959 12.9351C19.7597 13.6647 20.4605 14.1696 21.2701 14.286L23.6007 14.621L21.9259 16.2359ZM79.9133 14.2862C80.7229 14.1698 81.4237 13.6649 81.7872 12.9357L82.8446 10.8166L83.9022 12.9361C84.2663 13.6653 84.9669 14.17 85.7761 14.2862L88.1066 14.621L86.4316 16.2359C85.8392 16.8066 85.5694 17.6304 85.7099 18.4386L86.1088 20.7396L83.9967 19.6411C83.275 19.2662 82.4134 19.2666 81.6921 19.6414L79.5804 20.7398L79.9793 18.439C80.1198 17.6304 79.85 16.8066 79.2578 16.2361L77.5826 14.6212L79.9133 14.2862ZM63.7865 14.2862C64.5959 14.17 65.2965 13.6653 65.6609 12.9357L66.7182 10.8166L67.7756 12.9361C68.1397 13.6653 68.8403 14.17 69.6496 14.2862L71.98 14.6212L70.3046 16.2363C69.7129 16.8068 69.4434 17.63 69.5833 18.4386L69.9825 20.7396L67.8705 19.6412C67.1488 19.2662 66.2873 19.2664 65.5656 19.6414L63.4538 20.7396L63.8532 18.4382C63.9928 17.6298 63.7234 16.8068 63.1315 16.2361L61.4563 14.621L63.7865 14.2862ZM47.6603 14.2862C48.47 14.1698 49.1708 13.6649 49.5343 12.9357L50.5917 10.8164L51.6489 12.9353C52.0126 13.6649 52.7134 14.1698 53.523 14.2862L55.8537 14.6212L54.1787 16.2359C53.5863 16.8066 53.3165 17.6304 53.457 18.4386L53.8559 20.7398L51.744 19.6412C51.0223 19.2666 50.1609 19.2662 49.4392 19.6414L47.3275 20.7398L47.7264 18.439C47.8669 17.6304 47.5971 16.8066 47.0049 16.2361L45.3297 14.6212L47.6603 14.2862ZM33.408 12.9357L34.4653 10.8166L35.5227 12.9361C35.8868 13.6653 36.5874 14.17 37.3967 14.2862L39.7271 14.621L38.0517 16.2363C37.4599 16.8068 37.1905 17.63 37.3304 18.4386L37.7296 20.7396L35.6176 19.6412C35.2569 19.4538 34.8611 19.3601 34.4653 19.3601C34.0696 19.3601 33.6736 19.454 33.3126 19.6414L31.2009 20.7396L31.6002 18.4382C31.7399 17.6298 31.4705 16.8068 30.8785 16.2361L29.2034 14.6212L31.5336 14.2862C32.3432 14.17 33.0436 13.6653 33.408 12.9357Z" fill="white" stroke="#2C9DEF" mask="url(#path-1-inside-1)"/>
<path d="M58.4876 30.9836H58.3529L58.2788 31.096L51.6294 41.1859C51.3995 41.5346 51.0096 41.7447 50.5919 41.7447C50.1742 41.7447 49.7844 41.5346 49.5544 41.1859L42.905 31.096L42.8309 30.9836H42.6963H7.95375C5.35851 30.9836 3.25 28.8879 3.25 26.3162V4.91734C3.25 2.34567 5.35852 0.25 7.95355 0.25H30.4599C31.1462 0.25 31.7023 0.80604 31.7023 1.49233C31.7023 2.17863 31.1462 2.73467 30.4599 2.73467H7.95355C6.73406 2.73467 5.73447 3.70938 5.73447 4.91734V26.3162C5.73447 27.5244 6.7343 28.4989 7.95355 28.4989H43.4998C43.9175 28.4989 44.3073 28.7089 44.5372 29.0577L50.383 37.9278L50.5917 38.2446L50.8005 37.9278L56.6462 29.0577C56.8762 28.7089 57.2662 28.4989 57.6837 28.4989H73.6988C74.3851 28.4989 74.9412 29.0549 74.9412 29.7412C74.9412 30.4275 74.3851 30.9836 73.6988 30.9836H58.4876Z" fill="white" stroke="#2C9DEF" stroke-width="0.5"/>
<path d="M92.9801 0.25H93.2301C95.8251 0.25 97.9337 2.34567 97.9339 4.91734V26.3162C97.9339 28.8879 95.8254 30.9836 93.2301 30.9836H81.1607C80.4744 30.9836 79.9184 30.4275 79.9184 29.7412C79.9184 29.0549 80.4744 28.4989 81.1607 28.4989H93.2301C94.4496 28.4989 95.4492 27.5242 95.4492 26.3162V4.91734C95.4492 3.70915 94.4494 2.73467 93.2301 2.73467H37.922C37.2357 2.73467 36.6797 2.17863 36.6797 1.49233C36.6797 0.80604 37.2357 0.25 37.922 0.25H92.9801Z" fill="white" stroke="#2C9DEF" stroke-width="0.5"/>
<path d="M3.97011 54.8296H1.35963V56.5971H4.42332V57.6894H0V51.0906H4.41425V52.1919H1.35963V53.7646H3.97011V54.8296Z" fill="white"/>
<path d="M8.69598 53.3657L9.93324 51.0906H11.4968L9.57521 54.3628L11.5467 57.6894H9.96497L8.69598 55.378L7.427 57.6894H5.8453L7.81676 54.3628L5.89515 51.0906H7.45872L8.69598 53.3657Z" fill="white"/>
<path d="M18.4117 55.4913C18.3603 56.2013 18.0975 56.7603 17.6231 57.1682C17.1518 57.5761 16.5294 57.78 15.7559 57.78C14.9099 57.78 14.2437 57.496 13.7572 56.928C13.2738 56.3569 13.0321 55.5744 13.0321 54.5803V54.177C13.0321 53.5425 13.1439 52.9835 13.3675 52.5001C13.5911 52.0167 13.9098 51.6466 14.3237 51.3898C14.7407 51.1299 15.2241 51 15.774 51C16.5354 51 17.1487 51.2039 17.614 51.6118C18.0793 52.0197 18.3482 52.5923 18.4207 53.3295H17.0611C17.0279 52.9035 16.9085 52.5953 16.7031 52.4049C16.5007 52.2116 16.191 52.1149 15.774 52.1149C15.3208 52.1149 14.9809 52.278 14.7543 52.6044C14.5307 52.9276 14.4159 53.4307 14.4099 54.1135V54.6121C14.4099 55.3251 14.5171 55.8463 14.7316 56.1756C14.9492 56.505 15.2906 56.6696 15.7559 56.6696C16.1759 56.6696 16.4886 56.5745 16.694 56.3841C16.9025 56.1907 17.0218 55.8931 17.0521 55.4913H18.4117Z" fill="white"/>
<path d="M24.3884 54.8296H21.7779V56.5971H24.8416V57.6894H20.4183V51.0906H24.8326V52.1919H21.7779V53.7646H24.3884V54.8296Z" fill="white"/>
<path d="M28.1127 56.5971H30.9996V57.6894H26.7531V51.0906H28.1127V56.5971Z" fill="white"/>
<path d="M34.2571 56.5971H37.1441V57.6894H32.8975V51.0906H34.2571V56.5971Z" fill="white"/>
<path d="M43.012 54.8296H40.4015V56.5971H43.4652V57.6894H39.0419V51.0906H43.4562V52.1919H40.4015V53.7646H43.012V54.8296Z" fill="white"/>
<path d="M50.7427 57.6894H49.383L46.7363 53.3476V57.6894H45.3767V51.0906H46.7363L49.3876 55.4414V51.0906H50.7427V57.6894Z" fill="white"/>
<path d="M57.8751 52.1919H55.8538V57.6894H54.4942V52.1919H52.5V51.0906H57.8751V52.1919Z" fill="white"/>
<path d="M65.3644 55.2738H64.2813V57.6894H62.9217V51.0906H65.3735C66.153 51.0906 66.7543 51.2644 67.1773 51.6118C67.6003 51.9593 67.8118 52.4503 67.8118 53.0848C67.8118 53.5349 67.7136 53.9111 67.5172 54.2132C67.3238 54.5124 67.0292 54.7511 66.6334 54.9293L68.061 57.6259V57.6894H66.6017L65.3644 55.2738ZM64.2813 54.1725H65.378C65.7195 54.1725 65.9838 54.0864 66.1712 53.9141C66.3585 53.7389 66.4521 53.4987 66.4521 53.1935C66.4521 52.8823 66.363 52.6376 66.1848 52.4593C66.0095 52.2811 65.7391 52.1919 65.3735 52.1919H64.2813V54.1725Z" fill="white"/>
<path d="M73.6888 56.3297H71.3049L70.8517 57.6894H69.406L71.8624 51.0906H73.1223L75.5923 57.6894H74.1465L73.6888 56.3297ZM71.672 55.2284H73.3217L72.4923 52.7584L71.672 55.2284Z" fill="white"/>
<path d="M81.7458 52.1919H79.7244V57.6894H78.3648V52.1919H76.3707V51.0906H81.7458V52.1919Z" fill="white"/>
<path d="M85.0848 57.6894H83.7252V51.0906H85.0848V57.6894Z" fill="white"/>
<path d="M92.8291 57.6894H91.4694L88.8227 53.3476V57.6894H87.4631V51.0906H88.8227L91.474 55.4414V51.0906H92.8291V57.6894Z" fill="white"/>
<path d="M100.351 56.8555C100.107 57.1485 99.7606 57.3766 99.3134 57.5398C98.8662 57.6999 98.3707 57.78 97.8269 57.78C97.2558 57.78 96.7543 57.6561 96.3222 57.4084C95.8932 57.1576 95.5608 56.795 95.3252 56.3207C95.0925 55.8463 94.9732 55.2889 94.9671 54.6483V54.1997C94.9671 53.541 95.0774 52.9715 95.298 52.4911C95.5215 52.0076 95.8418 51.639 96.2588 51.3852C96.6787 51.1284 97.1697 51 97.7317 51C98.5142 51 99.1261 51.1873 99.5672 51.562C100.008 51.9336 100.27 52.4759 100.351 53.189H99.0279C98.9674 52.8113 98.833 52.5349 98.6245 52.3596C98.4191 52.1844 98.135 52.0968 97.7725 52.0968C97.3102 52.0968 96.9582 52.2705 96.7165 52.618C96.4748 52.9654 96.3524 53.4821 96.3494 54.1679V54.5894C96.3494 55.2813 96.4808 55.804 96.7437 56.1575C97.0066 56.511 97.3918 56.6878 97.8994 56.6878C98.41 56.6878 98.7741 56.579 98.9916 56.3615V55.2239H97.7543V54.2223H100.351V56.8555Z" fill="white"/>
</svg>
