<svg width="83" height="83" viewBox="0 0 83 83" fill="none" xmlns="http://www.w3.org/2000/svg">
<g clip-path="url(#clip0)">
<rect x="1.375" y="50.5" width="8.18985" height="27.25" fill="#BFDEFF"/>
<rect x="10.3125" y="52" width="5.125" height="23.625" fill="#BFDEFF"/>
<path d="M9.53282 78.7852H2.16563C1.26875 78.7852 0.532036 78.0395 0.532036 77.1317V51.1293C0.532036 50.2215 1.26875 49.4758 2.16563 49.4758H9.53282C10.4297 49.4758 11.1664 50.2215 11.1664 51.1293V77.1317C11.1664 78.0395 10.4297 78.7852 9.53282 78.7852ZM2.1336 51.0645C2.10157 51.0645 2.10157 51.0969 2.10157 51.0969V77.0993C2.10157 77.1317 2.1336 77.1317 2.1336 77.1317H9.50078C9.53282 77.1317 9.53282 77.0993 9.53282 77.0993V51.0969C9.53282 51.0645 9.50078 51.0645 9.50078 51.0645H2.1336Z" fill="white"/>
<path d="M14.2734 76.7103H10.3656C9.91719 76.7103 9.56484 76.3536 9.56484 75.8997V51.9399C9.56484 51.486 9.91719 51.1294 10.3656 51.1294H14.2734C15.1703 51.1294 15.907 51.8751 15.907 52.7829V75.0567C15.907 75.9646 15.1703 76.7103 14.2734 76.7103ZM11.1664 75.0892H14.2734C14.3055 75.0892 14.3055 75.0567 14.3055 75.0567V52.8153C14.3055 52.7829 14.2734 52.7829 14.2734 52.7829H11.1664V75.0892Z" fill="white"/>
<path d="M36.6633 75.4457L26.9258 72.852C24.075 72.1063 21.1281 71.8793 18.2133 72.2035L15.1703 72.5277C14.7219 72.5602 14.3375 72.2684 14.2734 71.8145C14.2734 71.782 14.2734 71.7496 14.2734 71.7172V54.9551C14.2734 54.5336 14.5938 54.177 14.9781 54.1446L22.0891 53.3988C24.5875 53.1395 27.15 53.4637 29.4883 54.4039C34.0367 56.1871 37.7203 57.1598 39.8664 57.1598C40.475 57.1598 41.1477 57.1598 41.7883 57.1274C45.0875 57.0625 48.4828 56.9653 50.2445 58.716C51.0133 59.5266 51.4297 60.5965 51.3656 61.6988C51.3656 61.861 51.3656 62.0555 51.3336 62.2176L62.7047 56.7707C64.8828 55.7332 67.5094 56.6735 68.5344 58.8781C69.4953 60.8883 68.7906 63.3199 66.9328 64.5195L53.5758 73.1113C53.5758 73.1113 53.5438 73.1113 53.5438 73.1438C48.4828 76.1266 42.3648 76.9695 36.6633 75.4457ZM27.3102 71.2957L37.0477 73.8895C42.3648 75.316 48.0023 74.5379 52.775 71.7496L66.1 63.1578C67.3813 62.3149 67.7656 60.5965 66.9648 59.2996C66.2281 58.1 64.6906 57.6461 63.4414 58.2621L49.5398 64.941C46.4328 67.0485 40.475 67.1457 39.6102 67.1457C39.1617 67.1457 38.8094 66.7891 38.8094 66.3352C38.8094 65.8813 39.1617 65.5246 39.6102 65.5246C41.5961 65.5246 46.4008 65.1356 48.643 63.6117C48.675 63.5793 48.707 63.5793 48.7391 63.5469C49.4117 63.0606 49.8281 62.477 49.8281 61.7313C49.8602 61.0504 49.6359 60.402 49.1875 59.8832C47.9062 58.6188 44.7031 58.6836 41.8844 58.7485C41.2437 58.7485 40.5711 58.7809 39.9305 58.7809C36.9195 58.7809 32.307 57.2246 28.9758 55.8953C26.8617 55.0524 24.5555 54.7606 22.3133 54.9875L15.9391 55.6684V70.8094L18.0852 70.5824C21.1602 70.2582 24.2992 70.4852 27.3102 71.2957Z" fill="white"/>
<path d="M52.6789 43.6074C51.9422 44.2396 50.9813 44.5477 49.732 44.5477C48.2746 44.5477 47.2016 44.191 46.4648 43.4615C46.0004 43.0076 45.6961 42.4402 45.5359 41.727C45.2316 40.4463 44.1106 39.5547 42.7973 39.5547C41.9324 39.5547 41.1156 39.9438 40.5871 40.6408C40.0426 41.3217 39.8504 42.2133 40.0426 43.0563C40.4109 44.6773 41.1316 46.0553 42.2047 47.1576C43.4859 48.4869 45.1516 49.3623 47.2016 49.7514V50.6592C47.2016 52.1344 48.3867 53.3502 49.8602 53.3502C51.3336 53.3502 52.5188 52.1506 52.5188 50.6592V49.7027C54.3125 49.3137 55.802 48.5355 56.9711 47.3846C58.5246 45.8445 59.3094 43.8182 59.3094 41.3865C59.3094 39.8627 59.0051 38.501 58.4125 37.35C57.8199 36.2152 56.923 35.2264 55.7539 34.3996C54.6809 33.6539 53.0633 32.9082 50.8211 32.1463C48.5469 31.3682 47.5219 30.6873 47.0574 30.2496C46.5609 29.7795 46.3367 29.1311 46.3367 28.1908C46.3367 27.202 46.609 26.4887 47.1855 25.9375C47.7941 25.3701 48.675 25.0783 49.8922 25.0783C51.0453 25.0783 51.8781 25.4187 52.5027 26.132C52.9352 26.6346 53.2234 27.2344 53.3676 27.9801C53.6398 29.277 54.793 30.2334 56.1223 30.2334C56.9711 30.2334 57.7559 29.8605 58.3004 29.1959C58.8289 28.5475 59.0531 27.6883 58.893 26.8615C58.5887 25.208 57.948 23.7977 57.0031 22.6629C55.882 21.3012 54.3926 20.3934 52.5988 19.9395V18.7398C52.5988 17.2484 51.3977 16.0488 49.9402 16.0488C48.4668 16.0488 47.2816 17.2646 47.2816 18.7398V19.907C45.552 20.2961 44.1106 21.0904 42.9734 22.2576C41.468 23.8139 40.6992 25.824 40.6992 28.2395C40.6992 30.5414 41.4039 32.4705 42.7813 33.9781C44.0785 35.3885 46.1445 36.5232 49.0914 37.4635C51.4457 38.2902 52.4707 38.9873 52.9191 39.4412C53.4316 39.9438 53.6559 40.576 53.6559 41.4189C53.6398 42.343 53.3195 43.04 52.6789 43.6074ZM54.0082 38.2902C53.1754 37.4635 51.718 36.6854 49.5559 35.9234C46.8652 35.0643 45.0074 34.0754 43.9023 32.8758C42.8133 31.6924 42.2527 30.1361 42.2527 28.2395C42.2527 26.2617 42.8613 24.6244 44.0625 23.3924C45.1035 22.3225 46.4809 21.6578 48.1465 21.3822C48.5309 21.3174 48.8191 20.977 48.8191 20.5879V18.7561C48.8191 18.1562 49.2996 17.6861 49.8762 17.6861C50.4527 17.6861 50.9332 18.1725 50.9332 18.7561V20.6041C50.9332 20.9932 51.2055 21.3336 51.5898 21.3984C53.3195 21.7064 54.6969 22.4846 55.7059 23.7004C56.4746 24.6244 56.9871 25.7916 57.2434 27.1695C57.3074 27.5262 57.2113 27.899 56.9871 28.1746C56.7469 28.4664 56.4105 28.6285 56.0422 28.6285C55.4656 28.6285 54.9691 28.2232 54.857 27.6721C54.6488 26.6508 54.2324 25.7916 53.6238 25.0783C52.6949 24.0246 51.4137 23.4734 49.8121 23.4734C48.1625 23.4734 46.9133 23.8949 46.0004 24.7703C45.1035 25.6295 44.6391 26.7805 44.6391 28.207C44.6391 29.585 45.0555 30.6711 45.8723 31.4492C46.7211 32.2436 48.1465 32.973 50.2125 33.6863C52.3105 34.4158 53.8 35.0805 54.7609 35.7451C55.7219 36.4098 56.4426 37.2041 56.923 38.1119C57.4035 39.0197 57.6438 40.1221 57.6438 41.3865C57.6438 43.3805 57.0191 45.0178 55.7859 46.2336C54.7129 47.2873 53.2875 47.9682 51.5418 48.2275C51.1574 48.2924 50.8531 48.6328 50.8531 49.0219V50.643C50.8531 51.2266 50.3727 51.7129 49.7961 51.7129C49.2195 51.7129 48.7391 51.2266 48.7391 50.643V49.0381C48.7391 48.6328 48.4348 48.2924 48.0504 48.2275C46.0484 47.952 44.4469 47.2062 43.2938 46.0066C42.4449 45.115 41.8523 43.9965 41.548 42.6672C41.468 42.2943 41.548 41.9215 41.7883 41.6135C42.0285 41.3217 42.3809 41.1434 42.7492 41.1434C43.3098 41.1434 43.8063 41.5324 43.9344 42.0674C44.1746 43.0725 44.623 43.9154 45.3117 44.5963C46.3688 45.6338 47.7941 46.1363 49.684 46.1363C51.3336 46.1363 52.6309 45.6986 53.6719 44.8232C54.6809 43.9479 55.1934 42.7969 55.1934 41.4027C55.2414 40.1545 54.825 39.1008 54.0082 38.2902Z" fill="white"/>
<path d="M17.0312 35.1875L25.7812 41.9375L26.4062 41.7188L28.6562 38.875L32.4062 33.2812L32.5938 31.1562L31.2812 30.7812L27.0312 35.6875C26.75 34.8958 26.2312 33.0063 26.4062 31.7812C26.625 30.25 29.375 25.2188 30.6875 22.9688C32 20.7188 37.9707 11.9086 49 11.8125C60.0293 11.7164 63.2812 17.5 67.1875 21.25C71.0938 25 71.5938 33.4062 71.75 35.0938C71.875 36.4438 70.6771 40.9896 70.0625 43.0938L69.0621 45.0391C68.4914 46.1486 69.297 47.4688 70.5447 47.4688C71.1859 47.4688 71.7708 47.1022 72.0366 46.5186C72.6135 45.2516 73.4312 43.3555 73.9688 41.7812C74.8438 39.2188 74.6875 35.9062 74.2812 30.0625C73.875 24.2188 68.8438 18.3438 68.1562 17.5C67.4688 16.6562 61.5 10.8125 54.0625 9.24999C46.625 7.68749 40.9688 10.0625 34.9688 13.5625C28.9688 17.0625 26.1562 23.0312 24.7812 26.5312C23.6813 29.3312 23.7188 34.1354 23.875 36.1875L19.375 32.75L17.9688 33.0625L17.0312 35.1875Z" fill="#BFDEFF"/>
<path d="M32.7074 30.428C31.6344 29.6498 30.1289 29.893 29.3602 30.9791L27.8547 33.0866C28.5754 22.9547 36.2469 14.4926 46.4969 13.1309C57.8199 11.6395 68.4062 19.5018 70.3922 30.8981C71.3531 36.4422 70.1519 41.8567 67.4133 46.2498C67.0769 46.7848 67.4613 47.4819 68.0859 47.4819C68.3582 47.4819 68.6144 47.336 68.7586 47.109C71.6414 42.4727 72.9547 36.7989 72.0258 30.9791C70.0719 18.6102 58.6848 9.95356 46.4008 11.5098C34.4211 13.0336 25.6926 23.587 26.2211 35.6803C26.2371 36.0207 26.4613 36.3288 26.7977 36.426C27.118 36.5233 27.4703 36.4098 27.6785 36.118L30.6574 31.9194C30.9297 31.5303 31.4742 31.4655 31.8426 31.7897C32.1629 32.0653 32.1789 32.5516 31.9387 32.892L26.7176 40.2356C26.4613 40.5922 25.9488 40.6733 25.5965 40.4139L18.3414 35.1291C18.1973 35.0157 18.0691 34.8698 18.0211 34.6914C17.957 34.4483 17.9891 34.1889 18.1332 33.9782C18.3895 33.6215 18.8859 33.5405 19.2543 33.7998L23.3703 36.7989C23.6266 36.9772 23.9469 37.0096 24.2191 36.8475C24.4914 36.7016 24.6516 36.4098 24.6355 36.0856C23.9148 23.4573 32.5633 12.3852 44.7992 10.1157C58.3965 7.58676 71.2891 16.7297 73.5793 30.5252C74.5082 36.1342 73.5152 41.6135 71.0809 46.2985C70.7926 46.8334 71.1769 47.4819 71.7855 47.4819C72.0738 47.4819 72.3461 47.3198 72.4902 47.0604C75.0687 42.1161 76.1418 36.3288 75.1808 30.3955C72.8426 15.9354 59.3254 6.07914 45.0234 8.44594C38.5852 9.51586 32.7875 12.9526 28.7195 18.1239C25.0199 22.825 23.018 28.5961 22.9859 34.5456L20.1832 32.503C19.1102 31.7248 17.6047 31.968 16.8359 33.0541C16.4676 33.5891 16.3074 34.2213 16.4195 34.8698C16.5156 35.5182 16.868 36.0694 17.3805 36.4584L24.6676 41.7594C25.2121 42.1485 25.8687 42.2944 26.5254 42.1809C27.15 42.0674 27.6945 41.6784 28.0629 41.1596L33.2519 33.8485C34.0207 32.7299 33.7805 31.2061 32.7074 30.428Z" fill="white"/>
</g>
<defs>
<clipPath id="clip0">
<rect width="82" height="83" fill="white" transform="translate(0.5)"/>
</clipPath>
</defs>
</svg>
