<svg width="383" height="29" viewBox="0 0 383 29" fill="none" xmlns="http://www.w3.org/2000/svg">
<path d="M362.553 22.2396L362.91 20.7827L362.553 22.2396ZM1.36199 28.4557L3.4373 27.9396L2.71332 25.0283L0.638009 25.5443L1.36199 28.4557ZM7.58792 26.9074L11.7385 25.8753L11.0146 22.9639L6.86394 23.9961L7.58792 26.9074ZM15.8892 24.8431L17.9645 24.327L17.2405 21.4157L15.1652 21.9318L15.8892 24.8431ZM17.9645 24.327C18.6676 24.1522 19.3709 23.9784 20.0744 23.8057L19.3592 20.8922C18.6528 21.0656 17.9465 21.2401 17.2405 21.4157L17.9645 24.327ZM24.2978 22.7825C25.7064 22.4458 27.1157 22.1134 28.5258 21.7853L27.8459 18.8633C26.4299 19.1928 25.0147 19.5266 23.6002 19.8647L24.2978 22.7825ZM32.7619 20.8131C34.1747 20.4933 35.5882 20.1779 37.0024 19.8668L36.3579 16.9369C34.9378 17.2493 33.5183 17.566 32.0997 17.8871L32.7619 20.8131ZM41.2488 18.9462C42.6656 18.6435 44.083 18.3452 45.5012 18.0512L44.8921 15.1136C43.4681 15.4089 42.0447 15.7085 40.622 16.0124L41.2488 18.9462ZM49.7575 17.1821C51.178 16.8966 52.5991 16.6154 54.0209 16.3385L53.4475 13.3938C52.0198 13.6719 50.5927 13.9542 49.1663 14.241L49.7575 17.1821ZM58.2882 15.5209C59.7117 15.2526 61.1358 14.9887 62.5605 14.7291L62.0227 11.7777C60.592 12.0384 59.162 12.3034 57.7325 12.5728L58.2882 15.5209ZM66.8379 13.963C68.2643 13.712 69.6912 13.4654 71.1187 13.2231L70.6167 10.2654C69.1832 10.5087 67.7503 10.7564 66.318 11.0084L66.8379 13.963ZM75.4055 12.5087C76.835 12.275 78.265 12.0456 79.6956 11.8205L79.2294 8.85696C77.7928 9.08296 76.3568 9.31332 74.9214 9.54806L75.4055 12.5087ZM83.9899 11.1582C85.4222 10.9417 86.8551 10.7296 88.2885 10.5219L87.8581 7.55289C86.4188 7.76152 84.9799 7.97452 83.5416 8.1919L83.9899 11.1582ZM92.5899 9.91164C94.0248 9.71249 95.4603 9.5177 96.8961 9.32727L96.5017 6.35332C95.0599 6.54454 93.6184 6.74014 92.1775 6.94012L92.5899 9.91164ZM101.205 8.76907C102.642 8.58732 104.08 8.40993 105.517 8.23691L105.159 5.2584C103.715 5.43214 102.272 5.61027 100.829 5.79277L101.205 8.76907ZM109.833 7.73082C111.272 7.56649 112.712 7.40652 114.151 7.25092L113.829 4.26829C112.383 4.42454 110.938 4.58517 109.493 4.75019L109.833 7.73082ZM118.473 6.79703C119.914 6.65011 121.355 6.50755 122.797 6.36936L122.511 3.38305C121.063 3.52181 119.616 3.66497 118.169 3.81251L118.473 6.79703ZM127.124 5.96783C128.566 5.83833 130.009 5.71321 131.453 5.59245L131.202 2.6029C129.753 2.72416 128.304 2.8498 126.855 2.97984L127.124 5.96783ZM135.783 5.24331C137.228 5.13127 138.672 5.0236 140.117 4.92031L139.903 1.92795C138.452 2.03167 137.002 2.13979 135.551 2.25229L135.783 5.24331ZM144.452 4.62355C145.897 4.52899 147.343 4.43881 148.788 4.353L148.611 1.35827C147.159 1.44444 145.707 1.535 144.256 1.62995L144.452 4.62355ZM153.127 4.10868C154.573 4.03162 156.02 3.95893 157.466 3.89062L157.325 0.893961C155.872 0.962559 154.419 1.03555 152.967 1.11293L153.127 4.10868ZM161.807 3.69879C163.254 3.63922 164.702 3.58403 166.149 3.53321L166.044 0.535063C164.59 0.586086 163.137 0.641508 161.684 0.701324L161.807 3.69879ZM170.492 3.3939C171.94 3.35184 173.388 3.31416 174.836 3.28085L174.767 0.281647C173.313 0.31509 171.859 0.35293 170.405 0.395168L170.492 3.3939ZM179.18 3.19407C180.628 3.16953 182.076 3.14936 183.525 3.13357L183.492 0.133745C182.038 0.149601 180.583 0.169855 179.129 0.194506L179.18 3.19407ZM187.87 3.09933C189.318 3.0923 190.766 3.08965 192.215 3.09138L192.218 0.0913792C190.764 0.0896454 189.31 0.092308 187.855 0.099369L187.87 3.09933ZM196.56 3.1097C198.008 3.12018 199.457 3.13505 200.905 3.15429L200.945 0.154554C199.49 0.135229 198.036 0.120302 196.582 0.109774L196.56 3.1097ZM205.249 3.22515C206.697 3.25315 208.145 3.28554 209.593 3.32229L209.67 0.323259C208.216 0.286348 206.761 0.253834 205.307 0.225716L205.249 3.22515ZM213.937 3.4457C215.384 3.49121 216.832 3.5411 218.279 3.59537L218.392 0.597471C216.938 0.542978 215.485 0.492882 214.031 0.44718L213.937 3.4457ZM222.621 3.7713C224.068 3.83431 225.515 3.9017 226.961 3.97347L227.11 0.977152C225.657 0.905087 224.204 0.837416 222.752 0.774141L222.621 3.7713ZM231.3 4.20189C232.747 4.2824 234.192 4.36729 235.638 4.45655L235.823 1.46225C234.371 1.37262 232.919 1.28738 231.467 1.20653L231.3 4.20189ZM239.974 4.73743C241.419 4.83543 242.864 4.93781 244.309 5.04456L244.53 2.05271C243.079 1.94552 241.628 1.84271 240.177 1.74431L239.974 4.73743ZM248.641 5.37784C250.084 5.4933 251.528 5.61314 252.971 5.73735L253.228 2.7484C251.779 2.62367 250.33 2.50333 248.88 2.38738L248.641 5.37784ZM257.299 6.12303C258.741 6.25594 260.183 6.39322 261.624 6.53487L261.918 3.54925C260.47 3.40701 259.022 3.26915 257.574 3.13569L257.299 6.12303ZM265.948 6.97292C267.388 7.12325 268.828 7.27794 270.268 7.437L270.597 4.45515C269.151 4.29542 267.706 4.14008 266.259 3.98913L265.948 6.97292ZM274.585 7.92728C276.024 8.09504 277.462 8.26715 278.899 8.44363L279.265 5.46598C277.821 5.28876 276.377 5.11593 274.933 4.94748L274.585 7.92728ZM283.21 8.98605C284.647 9.17122 286.083 9.36075 287.519 9.55464L287.92 6.58163C286.479 6.38693 285.037 6.19661 283.594 6.01067L283.21 8.98605ZM291.822 10.1491C293.257 10.3516 294.69 10.5585 296.123 10.7697L296.561 7.80177C295.122 7.58966 293.682 7.38193 292.242 7.17857L291.822 10.1491ZM300.42 11.4163C301.851 11.6361 303.282 11.8602 304.713 12.0888L305.186 9.12634C303.75 8.89687 302.313 8.67176 300.875 8.45103L300.42 11.4163ZM309.002 12.7874C310.43 13.0245 311.858 13.2659 313.285 13.5117L313.795 10.5552C312.361 10.3084 310.927 10.0659 309.493 9.82787L309.002 12.7874ZM317.566 14.262C318.991 14.5164 320.416 14.7751 321.841 15.0382L322.386 12.0881C320.955 11.8239 319.524 11.5641 318.093 11.3087L317.566 14.262ZM326.111 15.8402C327.534 16.1118 328.956 16.3878 330.377 16.6682L330.958 13.7249C329.53 13.4434 328.102 13.1662 326.674 12.8934L326.111 15.8402ZM334.637 17.5216C336.056 17.8104 337.475 18.1036 338.893 18.4011L339.509 15.465C338.085 15.1663 336.66 14.8719 335.235 14.5819L334.637 17.5216ZM343.142 19.3061C344.558 19.612 345.972 19.9223 347.386 20.2368L348.038 17.3084C346.618 16.9926 345.197 16.681 343.776 16.3738L343.142 19.3061ZM351.626 21.1935C353.037 21.5164 354.448 21.8437 355.857 22.1753L356.544 19.2549C355.129 18.922 353.712 18.5934 352.295 18.2691L351.626 21.1935ZM360.085 23.183C360.789 23.3531 361.493 23.5243 362.197 23.6966L362.91 20.7827C362.203 20.6096 361.496 20.4377 360.789 20.2669L360.085 23.183ZM362.197 23.6966L364.628 24.2917L365.341 21.3777L362.91 20.7827L362.197 23.6966ZM369.489 25.4818L374.351 26.6718L375.064 23.7579L370.203 22.5678L369.489 25.4818ZM379.213 27.8619L381.643 28.457L382.357 25.543L379.926 24.948L379.213 27.8619Z" fill="url(#paint0_linear)"/>
<defs>
<linearGradient id="paint0_linear" x1="390" y1="37" x2="1.00007" y2="50" gradientUnits="userSpaceOnUse">
<stop stop-color="#ECE8FB"/>
<stop offset="1" stop-color="#F5E2E5"/>
</linearGradient>
</defs>
</svg>
