<svg width="24" height="30" viewBox="0 0 24 30" fill="none" xmlns="http://www.w3.org/2000/svg">
<path d="M9.72887 12.4432C10.3388 12.4432 10.6166 12.0482 10.6166 11.6812C10.6166 11.5086 10.5613 11.3322 10.452 11.1569L6.54648 4.89162C6.36153 4.5946 6.08276 4.42432 5.78173 4.42432C5.47917 4.42432 5.19861 4.59614 5.01213 4.89545L1.10641 11.157C0.997323 11.3323 0.941925 11.5086 0.941925 11.6812C0.941925 12.0482 1.21968 12.4432 1.82957 12.4432H4.24432L4.24432 25.7067C4.24432 28.074 6.14148 30 8.47347 30H11.4886C12.4301 30 13.1932 29.2369 13.1932 28.2955C13.1932 27.354 12.4301 26.5909 11.4886 26.5909H8.47347C8.02892 26.5909 7.65341 26.186 7.65341 25.7067L7.65341 12.4432H9.72887Z" fill="#B1BDCD"/>
<path d="M10.9773 1.70437C10.9773 2.6458 11.7404 3.40892 12.6818 3.40892H15.6281C16.0933 3.40892 16.5171 3.83037 16.5171 4.29315V17.5566H14.2712C13.6613 17.5566 13.3834 17.9517 13.3834 18.3188C13.3834 18.4913 13.4388 18.6677 13.548 18.843L17.4535 25.1083C17.6385 25.4053 17.9172 25.5757 18.2183 25.5757C18.5208 25.5757 18.8014 25.4039 18.9879 25.1045L22.8936 18.843C23.0028 18.6678 23.0581 18.4914 23.0581 18.3188C23.0581 17.9518 22.7803 17.5567 22.1704 17.5567H19.9262V4.29324C19.9262 3.15733 19.4751 2.08176 18.656 1.26469C17.8383 0.449148 16.763 -8.58307e-05 15.6281 -8.58307e-05H12.6818C11.7404 -0.000169754 10.9773 0.762955 10.9773 1.70437Z" fill="#B1BDCD"/>
</svg>
