<svg width="172" height="155" viewBox="0 0 172 155" fill="none" xmlns="http://www.w3.org/2000/svg">
<circle cx="102" cy="85" r="70" fill="#FBFCFD"/>
<circle cx="24.5" cy="34.5" r="24.5" fill="#ECE8FB"/>
<circle cx="102" cy="85" r="60" fill="#ECE8FB"/>
<path d="M32.4531 46H16.8594V42.9062L24.2188 35.0625C25.2292 33.9583 25.974 32.9948 26.4531 32.1719C26.9427 31.349 27.1875 30.5677 27.1875 29.8281C27.1875 28.8177 26.9323 28.026 26.4219 27.4531C25.9115 26.8698 25.1823 26.5781 24.2344 26.5781C23.2135 26.5781 22.4062 26.9323 21.8125 27.6406C21.2292 28.3385 20.9375 29.2604 20.9375 30.4062H16.4062C16.4062 29.0208 16.7344 27.7552 17.3906 26.6094C18.0573 25.4635 18.9948 24.5677 20.2031 23.9219C21.4115 23.2656 22.7812 22.9375 24.3125 22.9375C26.6562 22.9375 28.474 23.5 29.7656 24.625C31.0677 25.75 31.7188 27.3385 31.7188 29.3906C31.7188 30.5156 31.4271 31.6615 30.8438 32.8281C30.2604 33.9948 29.2604 35.3542 27.8438 36.9062L22.6719 42.3594H32.4531V46Z" fill="#6758A0"/>
<g clip-path="url(#clip0)">
<path d="M97.5342 55.0911V53.8109C97.5342 53.3017 97.9458 52.8901 98.455 52.8901C98.9641 52.8901 99.3793 53.3017 99.3793 53.8109V55.0911H101.434V53.8109C101.434 53.3017 101.849 52.8901 102.358 52.8901C102.867 52.8901 103.282 53.3017 103.282 53.8109V55.1992C104.008 55.3736 104.664 55.7468 105.176 56.2595C105.905 56.9816 106.355 57.9755 106.355 59.0673C106.355 60.2568 105.818 61.3658 104.908 62.1228C105.818 62.8797 106.355 63.989 106.355 65.1749C106.355 66.2701 105.905 67.2641 105.176 67.9861C104.664 68.4989 104.008 68.8722 103.282 69.0466V70.4348C103.282 70.9441 102.867 71.3555 102.358 71.3555C101.849 71.3555 101.434 70.9439 101.434 70.4348V69.1547H99.3793V70.4348C99.3793 70.9441 98.9641 71.3555 98.455 71.3555C97.9457 71.3555 97.5342 70.9439 97.5342 70.4348V69.1547H94.1996C93.6903 69.1547 93.2753 68.7397 93.2753 68.2304C93.2753 67.7211 93.6903 67.3095 94.1996 67.3095H95.2285V62.1228V56.9362H94.1996C93.6903 56.9362 93.2753 56.5246 93.2753 56.0154C93.2753 55.5061 93.6903 55.0911 94.1996 55.0911H97.5342ZM88.0399 73.1065C87.5585 72.5309 87.1191 71.917 86.7285 71.2717H74.6042C73.8473 71.2717 73.1566 71.5822 72.6579 72.0845C72.1557 72.5833 71.8453 73.274 71.8453 74.0308C71.8453 74.7877 72.1558 75.4748 72.6579 75.977C73.1568 76.4758 73.8473 76.7863 74.6042 76.7863H127.786V71.2717H112.906C112.511 71.917 112.072 72.5309 111.591 73.1065H125.026C125.539 73.1065 125.951 73.5215 125.951 74.0308C125.951 74.5401 125.539 74.9516 125.026 74.9516H74.6042C74.0949 74.9516 73.6798 74.54 73.6798 74.0308C73.6798 73.5215 74.0949 73.1065 74.6042 73.1065H88.0399ZM85.7691 69.4266C84.9529 67.5536 84.4995 65.4888 84.4995 63.3156C84.4995 59.0882 86.2123 55.2585 88.9851 52.4854C91.758 49.716 95.5878 48 99.8154 48C102.079 48 104.235 48.4953 106.174 49.3812C108.19 50.3021 109.966 51.645 111.395 53.2983C111.73 53.6819 111.688 54.261 111.305 54.5957C110.918 54.9272 110.339 54.8853 110.004 54.5016C108.745 53.0471 107.182 51.8647 105.41 51.0555C103.711 50.2777 101.817 49.8452 99.8154 49.8452C96.097 49.8452 92.7277 51.3555 90.2897 53.7901C87.8516 56.2283 86.3448 59.5977 86.3448 63.3158C86.3448 65.2551 86.7528 67.0968 87.4888 68.7606C88.2178 70.4104 89.2677 71.8857 90.5617 73.1066H109.069C110.363 71.8823 111.416 70.4034 112.145 68.7501C112.878 67.0897 113.286 65.2517 113.286 63.3158C113.286 62.3391 113.185 61.3939 112.99 60.4836C112.791 59.5452 112.491 58.6454 112.107 57.7908C111.898 57.3268 112.104 56.7828 112.567 56.5735C113.031 56.3642 113.579 56.5701 113.788 57.034C114.224 58.0072 114.563 59.0326 114.793 60.0999C115.016 61.1429 115.131 62.2171 115.131 63.3158C115.131 65.4853 114.681 67.5537 113.862 69.4268H128.71C129.219 69.4268 129.631 69.8418 129.631 70.3511V86.0436C130.548 86.0436 131.375 86.3644 132.027 87.0167C132.627 87.6201 133 88.4467 133 89.3572V91.2058C133 91.7151 132.588 92.1301 132.079 92.1301C131.57 92.1301 131.155 91.715 131.155 91.2058V89.3572C131.155 88.9526 130.991 88.5863 130.726 88.3214C130.461 88.0562 130.095 87.8888 129.69 87.8888H114.416C114.011 87.8888 113.642 88.0562 113.377 88.3214C113.112 88.5864 112.948 88.9526 112.948 89.3572V97.24C112.948 97.6412 113.112 98.0074 113.377 98.2725C113.642 98.5377 114.011 98.705 114.416 98.705H129.69C130.094 98.705 130.461 98.5376 130.726 98.2725C130.991 98.0075 131.155 97.6413 131.155 97.24V95.3878C131.155 94.8786 131.57 94.4635 132.079 94.4635C132.588 94.4635 133 94.8786 133 95.3878V97.2399C133 98.1468 132.627 98.977 132.027 99.5769C131.375 100.229 130.548 100.55 129.631 100.55V105.562C129.631 107.24 129.264 108.576 128.375 109.532C127.485 110.494 126.136 111 124.193 111H101.49C100.98 111 100.565 110.588 100.565 110.079C100.565 109.57 100.98 109.155 101.49 109.155H124.193C125.585 109.155 126.495 108.851 127.029 108.279C127.562 107.701 127.786 106.78 127.786 105.562V100.55H114.416C113.506 100.55 112.679 100.177 112.079 99.5769C111.476 98.977 111.103 98.1468 111.103 97.2399V89.357C111.103 88.4467 111.476 87.6201 112.079 87.0166C112.679 86.4166 113.506 86.0435 114.416 86.0435H127.786V78.6315H74.6042C73.5717 78.6315 72.616 78.2897 71.8452 77.7108V106.399C71.8452 107.156 72.1557 107.843 72.6578 108.346C73.1566 108.844 73.8472 109.155 74.604 109.155H97.3074C97.8167 109.155 98.2318 109.57 98.2318 110.079C98.2318 110.589 97.8167 111 97.3075 111H74.6042C73.338 111 72.1869 110.484 71.3534 109.65C70.5162 108.817 70 107.666 70 106.399V74.0308C70 72.7647 70.5162 71.6136 71.3534 70.78C72.1869 69.9429 73.338 69.4266 74.6042 69.4266H85.7691ZM118.954 89.9186C119.885 89.9186 120.729 90.2988 121.34 90.9091C121.95 91.5196 122.33 92.3637 122.33 93.2985C122.33 94.2297 121.95 95.0739 121.34 95.6844C120.729 96.2982 119.885 96.6749 118.954 96.6749C118.019 96.6749 117.175 96.2982 116.565 95.6844C115.954 95.0739 115.574 94.2298 115.574 93.2985C115.574 92.3637 115.954 91.5196 116.565 90.9091C117.175 90.2988 118.019 89.9186 118.954 89.9186ZM120.035 92.2137C119.76 91.9382 119.376 91.7637 118.954 91.7637C118.528 91.7637 118.145 91.9381 117.869 92.2137C117.594 92.4928 117.419 92.8729 117.419 93.2985C117.419 93.7205 117.594 94.1042 117.869 94.3798C118.145 94.6589 118.528 94.8297 118.954 94.8297C119.376 94.8297 119.76 94.6588 120.035 94.3798C120.314 94.1043 120.485 93.7205 120.485 93.2985C120.485 92.873 120.314 92.4928 120.035 92.2137ZM102.358 63.0436H97.0739V67.3094H102.358C102.951 67.3094 103.492 67.0687 103.879 66.6815C104.269 66.2944 104.51 65.7642 104.51 65.1782C104.51 64.5888 104.269 64.0586 103.879 63.6714C103.492 63.2843 102.951 63.0436 102.358 63.0436ZM102.358 56.9362H97.0739V61.1985H102.358C102.951 61.1985 103.492 60.9613 103.879 60.5742C104.269 60.1871 104.51 59.6534 104.51 59.0673C104.51 58.4813 104.269 57.9512 103.879 57.5639C103.492 57.1768 102.951 56.9362 102.358 56.9362Z" fill="#6758A0"/>
</g>
<defs>
<clipPath id="clip0">
<rect width="63" height="63" fill="white" transform="translate(70 48)"/>
</clipPath>
</defs>
</svg>
