<svg width="173" height="155" viewBox="0 0 173 155" fill="none" xmlns="http://www.w3.org/2000/svg">
<circle cx="103" cy="85" r="70" fill="#FBFCFD"/>
<circle cx="103" cy="85" r="60" fill="#DEF4F4"/>
<path d="M142.222 72.8889C142.222 59.1431 131.079 48 117.333 48C103.588 48 92.4445 59.1431 92.4445 72.8889" stroke="#2E9BAA" stroke-width="2"/>
<path d="M113 98.513C114.407 98.7601 115.855 98.8889 117.333 98.8889C123.854 98.8889 129.789 96.3813 134.227 92.2778" stroke="#2E9BAA" stroke-width="2"/>
<circle cx="88.8889" cy="96.8889" r="23.8889" stroke="#2E9BAA" stroke-width="2"/>
<mask id="path-6-inside-1" fill="white">
<path fill-rule="evenodd" clip-rule="evenodd" d="M80.2327 87.7269L93.3208 87.6633C95.7798 87.6513 97.7796 89.6414 97.7796 92.1005C97.7796 94.5511 95.793 96.5378 93.3423 96.5378H85.3104"/>
</mask>
<path d="M80.2424 89.7269L93.3305 89.6633L93.311 85.6633L80.2229 85.7269L80.2424 89.7269ZM93.3423 94.5378H85.3104V98.5378H93.3423V94.5378ZM95.7796 92.1005C95.7796 93.4466 94.6884 94.5378 93.3423 94.5378V98.5378C96.8976 98.5378 99.7796 95.6557 99.7796 92.1005H95.7796ZM93.3305 89.6633C94.6812 89.6567 95.7796 90.7498 95.7796 92.1005H99.7796C99.7796 88.5331 96.8784 85.646 93.311 85.6633L93.3305 89.6633Z" fill="#2E9BAA" mask="url(#path-6-inside-1)"/>
<mask id="path-8-inside-2" fill="white">
<path fill-rule="evenodd" clip-rule="evenodd" d="M85.2974 95.1609H93.1979C95.7273 95.1609 97.7778 97.2114 97.7778 99.7408C97.7778 102.258 95.747 104.303 93.2303 104.321L80 104.414"/>
</mask>
<path d="M93.2303 104.321L93.2162 102.321L93.2303 104.321ZM85.2974 97.1609H93.1979V93.1609H85.2974V97.1609ZM93.2162 102.321L79.9858 102.414L80.0142 106.414L93.2445 106.32L93.2162 102.321ZM95.7778 99.7408C95.7778 101.158 94.6338 102.311 93.2162 102.321L93.2445 106.32C96.8602 106.295 99.7778 103.357 99.7778 99.7408H95.7778ZM93.1979 97.1609C94.6227 97.1609 95.7778 98.3159 95.7778 99.7408H99.7778C99.7778 96.1068 96.8319 93.1609 93.1979 93.1609V97.1609Z" fill="#2E9BAA" mask="url(#path-8-inside-2)"/>
<path d="M84.9611 84.4443V107.491" stroke="#2E9BAA" stroke-width="2"/>
<path d="M93.1146 103.011C93.1146 103.011 93.1146 104.527 93.1146 105.251C93.1146 105.976 93.1146 107.491 93.1146 107.491" stroke="#2E9BAA" stroke-width="2"/>
<path d="M93.1146 84.4443C93.1146 84.4443 93.1146 85.6158 93.1146 86.1757C93.1146 86.7356 93.1146 87.907 93.1146 87.907" stroke="#2E9BAA" stroke-width="2"/>
<path d="M79.1111 52.8889V68.8889" stroke="#2E9BAA" stroke-width="2"/>
<path d="M87.1111 52.4443L87.1111 59.5554" stroke="#2E9BAA" stroke-width="2"/>
<path d="M109.559 70.288L117.295 57.9099L125.031 70.288L117.542 66.9081C117.385 66.8373 117.205 66.8373 117.048 66.9081L109.559 70.288Z" stroke="#2E9BAA" stroke-width="1.2" stroke-linecap="round" stroke-linejoin="round"/>
<path d="M110.085 74.3441L117.295 84.7259L124.504 74.3441L117.604 78.4846C117.414 78.5986 117.176 78.5986 116.986 78.4846L110.085 74.3441Z" stroke="#2E9BAA" stroke-width="1.2" stroke-linecap="round" stroke-linejoin="round"/>
<path d="M117.269 76.532L109.715 72.112L117.295 68.9536L124.872 72.1106L117.269 76.532Z" stroke="#2E9BAA" stroke-width="1.2" stroke-linecap="round" stroke-linejoin="round"/>
<circle cx="24.5" cy="34.5" r="24.5" fill="#DEF4F4"/>
<path d="M21.4531 32.625H23.8594C25.0052 32.625 25.8542 32.3385 26.4062 31.7656C26.9583 31.1927 27.2344 30.4323 27.2344 29.4844C27.2344 28.5677 26.9583 27.8542 26.4062 27.3438C25.8646 26.8333 25.1146 26.5781 24.1562 26.5781C23.2917 26.5781 22.5677 26.8177 21.9844 27.2969C21.401 27.7656 21.1094 28.3802 21.1094 29.1406H16.5938C16.5938 27.9531 16.9115 26.8906 17.5469 25.9531C18.1927 25.0052 19.0885 24.2656 20.2344 23.7344C21.3906 23.2031 22.6615 22.9375 24.0469 22.9375C26.4531 22.9375 28.3385 23.5156 29.7031 24.6719C31.0677 25.8177 31.75 27.401 31.75 29.4219C31.75 30.4635 31.4323 31.4219 30.7969 32.2969C30.1615 33.1719 29.3281 33.8438 28.2969 34.3125C29.5781 34.7708 30.5312 35.4583 31.1562 36.375C31.7917 37.2917 32.1094 38.375 32.1094 39.625C32.1094 41.6458 31.3698 43.2656 29.8906 44.4844C28.4219 45.7031 26.474 46.3125 24.0469 46.3125C21.776 46.3125 19.9167 45.7135 18.4688 44.5156C17.0312 43.3177 16.3125 41.7344 16.3125 39.7656H20.8281C20.8281 40.6198 21.1458 41.3177 21.7812 41.8594C22.4271 42.401 23.2188 42.6719 24.1562 42.6719C25.2292 42.6719 26.0677 42.3906 26.6719 41.8281C27.2865 41.2552 27.5938 40.5 27.5938 39.5625C27.5938 37.2917 26.3438 36.1562 23.8438 36.1562H21.4531V32.625Z" fill="#2E9BAA"/>
</svg>
