<svg width="166" height="155" viewBox="0 0 166 155" fill="none" xmlns="http://www.w3.org/2000/svg">
<circle cx="96" cy="85" r="70" fill="#FBFCFD"/>
<circle cx="24.5" cy="34.5" r="24.5" fill="#F5E2E5"/>
<path d="M27.8281 46H23.3125V28.5938L17.9219 30.2656V26.5938L27.3438 23.2188H27.8281V46Z" fill="#D45267"/>
<circle cx="96" cy="85" r="60" fill="#F5E2E5"/>
<path d="M97.5 57C97.5 56.1716 96.8284 55.5 96 55.5C95.1716 55.5 94.5 56.1716 94.5 57L97.5 57ZM94.9393 113.061C95.5251 113.646 96.4749 113.646 97.0607 113.061L106.607 103.515C107.192 102.929 107.192 101.979 106.607 101.393C106.021 100.808 105.071 100.808 104.485 101.393L96 109.879L87.5147 101.393C86.9289 100.808 85.9792 100.808 85.3934 101.393C84.8076 101.979 84.8076 102.929 85.3934 103.515L94.9393 113.061ZM94.5 57L94.5 112L97.5 112L97.5 57L94.5 57Z" fill="#D45267"/>
</svg>
