<svg width="15" height="20" viewBox="0 0 15 20" fill="none" xmlns="http://www.w3.org/2000/svg">
<path d="M14.6353 10.3645C14.3922 10.1214 14.0972 10 13.7498 10H4.16654V5.83342C4.16654 4.91312 4.49212 4.12764 5.14321 3.47655C5.79433 2.82561 6.57986 2.50007 7.50007 2.50007C8.42018 2.50007 9.20585 2.82556 9.8567 3.47655C10.5078 4.12764 10.8334 4.91316 10.8334 5.83342C10.8334 6.05903 10.9158 6.25432 11.0806 6.41924C11.2457 6.58419 11.4411 6.6667 11.6665 6.6667H12.5003C12.7258 6.6667 12.9211 6.58419 13.0862 6.41924C13.2507 6.25432 13.3334 6.05903 13.3334 5.83342C13.3334 4.22733 12.7626 2.85389 11.6213 1.7123C10.4797 0.570677 9.10593 0 7.50007 0C5.89407 0 4.5204 0.570677 3.37877 1.71226C2.23733 2.8537 1.66661 4.22729 1.66661 5.83337V10H1.24999C0.902876 10 0.607664 10.1216 0.36458 10.3645C0.121496 10.6073 0 10.9026 0 11.2499V18.75C0 19.0974 0.121542 19.3926 0.36458 19.6356C0.607664 19.8784 0.902876 20 1.24999 20H13.7498C14.0972 20 14.3925 19.8784 14.6353 19.6356C14.8782 19.3926 14.9999 19.0974 14.9999 18.75V11.2499C15.0001 10.9027 14.8785 10.6077 14.6353 10.3645Z" fill="#B1BDCD"/>
</svg>
