<svg width="33" height="31" viewBox="0 0 33 31" fill="none" xmlns="http://www.w3.org/2000/svg">
<path fill-rule="evenodd" clip-rule="evenodd" d="M16.4747 0C7.89487 0 0.9375 7.01647 0.9375 15.6724C0.9375 22.5969 5.38938 28.4717 11.5628 30.5441C12.3393 30.6892 12.6244 30.2041 12.6244 29.7901C12.6244 29.4165 12.61 28.1819 12.6033 26.8723C8.28081 27.8204 7.36871 25.0231 7.36871 25.0231C6.66194 23.2116 5.64359 22.7299 5.64359 22.7299C4.2339 21.7572 5.74985 21.7771 5.74985 21.7771C7.31006 21.8875 8.13158 23.3921 8.13158 23.3921C9.51734 25.7883 11.7663 25.0955 12.6529 24.6951C12.7924 23.6824 13.195 22.9904 13.6394 22.5993C10.1884 22.2031 6.56057 20.8592 6.56057 14.8539C6.56057 13.1427 7.16751 11.7446 8.16143 10.6471C8.0001 10.2521 7.46829 8.65827 8.31194 6.49948C8.31194 6.49948 9.61666 6.07825 12.5858 8.10599C13.8252 7.75873 15.1543 7.58459 16.4747 7.57861C17.7951 7.58459 19.1254 7.75873 20.367 8.10599C23.3326 6.07825 24.6355 6.49948 24.6355 6.49948C25.4811 8.65827 24.9491 10.2521 24.7878 10.6471C25.784 11.7446 26.3868 13.1427 26.3868 14.8539C26.3868 20.8735 22.752 22.1988 19.2923 22.5869C19.8496 23.0732 20.3462 24.0271 20.3462 25.4892C20.3462 27.586 20.3282 29.2737 20.3282 29.7901C20.3282 30.2072 20.6078 30.696 21.3954 30.542C27.5655 28.4673 32.0116 22.5947 32.0116 15.6724C32.0116 7.01647 25.0554 0 16.4747 0Z" fill="white"/>
</svg>
