<svg width="31" height="31" viewBox="0 0 31 31" fill="none" xmlns="http://www.w3.org/2000/svg">
<path fill-rule="evenodd" clip-rule="evenodd" d="M0.203125 15.1187C0.203125 6.76891 7.08343 0 15.5708 0C24.058 0 30.9382 6.76891 30.9382 15.1187C30.9382 23.4685 24.058 30.2374 15.5708 30.2374C7.08343 30.2374 0.203125 23.4685 0.203125 15.1187ZM13.0994 11.0473L8.17921 8.65578C8.13703 8.63532 8.09687 8.62563 8.06062 8.62563C8.00906 8.62563 7.96531 8.64531 7.93453 8.68141C7.90453 8.71672 7.88688 8.76765 7.88688 8.83141V19.0986C7.88688 19.2733 8.01843 19.4802 8.17921 19.5583L12.7259 21.7684C12.7892 21.7992 12.8494 21.8138 12.9037 21.8138C13.0569 21.8138 13.1644 21.6984 13.1644 21.5052V11.1497C13.1644 11.1064 13.1392 11.0667 13.0994 11.0473ZM23.2806 21.7651L18.8623 19.6175L23.719 11.9452V21.5016C23.719 21.7637 23.5218 21.8824 23.2806 21.7651ZM13.631 11.8159V17.0778L18.442 19.4164L13.631 11.8159ZM18.5881 8.58469L23.6033 11.0225C23.6658 11.053 23.6879 11.1288 23.6514 11.1866L18.7158 18.9838L15.2651 13.5323L18.3565 8.64891C18.3892 8.59718 18.4498 8.56735 18.511 8.56735L18.5158 8.56781C18.5407 8.56844 18.5654 8.57359 18.5881 8.58469Z" fill="white"/>
</svg>
