<svg width="32" height="31" viewBox="0 0 32 31" fill="none" xmlns="http://www.w3.org/2000/svg">
<path fill-rule="evenodd" clip-rule="evenodd" d="M16.1021 30.2374C24.5892 30.2374 31.4695 23.4685 31.4695 15.1187C31.4695 6.76891 24.5892 0 16.1021 0C7.61468 0 0.734375 6.76891 0.734375 15.1187C0.734375 23.4685 7.61468 30.2374 16.1021 30.2374ZM13.2847 22.0483C13.6584 22.0483 13.8292 21.8847 14.0356 21.687L14.0532 21.6703L15.8989 19.9045L19.739 22.6958C20.4457 23.0794 20.9559 22.8808 21.1318 22.0503L23.6528 10.3631C23.911 9.345 23.2584 8.88328 22.5823 9.18532L7.77953 14.8008C6.76906 15.1995 6.775 15.7541 7.59532 16.0013L11.3941 17.1676L20.1886 11.7092C20.6037 11.4614 20.9847 11.5947 20.672 11.8677L13.5463 18.1939L13.2847 22.0483Z" fill="white"/>
</svg>
