<svg width="31" height="31" viewBox="0 0 31 31" fill="none" xmlns="http://www.w3.org/2000/svg">
<path fill-rule="evenodd" clip-rule="evenodd" d="M15.3677 0C6.8803 0 0 6.76891 0 15.1187C0 23.4685 6.8803 30.2374 15.3677 30.2374C23.8548 30.2374 30.7351 23.4685 30.7351 15.1187C30.7351 6.76891 23.8548 0 15.3677 0ZM14.9396 12.8119L14.9075 12.2888C14.8106 10.9328 15.6599 9.69437 17.0036 9.2139C17.498 9.04312 18.3364 9.02172 18.8847 9.17125C19.0996 9.23531 19.5081 9.44875 19.7984 9.64093L20.3251 9.99328L20.9056 9.81172C21.228 9.71562 21.658 9.55562 21.8515 9.44875C22.0342 9.35265 22.1955 9.29938 22.1955 9.3314C22.1955 9.51281 21.7978 10.132 21.4646 10.4738C21.0131 10.9542 21.142 10.9969 22.0558 10.6766C22.6039 10.4952 22.6147 10.4952 22.5071 10.698C22.4426 10.8047 22.1096 11.1784 21.7546 11.52C21.1528 12.1072 21.1206 12.1712 21.1206 12.6623C21.1206 13.4204 20.7549 15.0004 20.3895 15.8653C19.7124 17.4881 18.2612 19.1644 16.81 20.0078C14.7676 21.1928 12.0481 21.4917 9.75859 20.7978C8.99531 20.5629 7.6839 19.9651 7.6839 19.8583C7.6839 19.8263 8.08156 19.7836 8.56531 19.7728C9.57578 19.7516 10.5862 19.4739 11.4461 18.9828L12.0266 18.6413L11.3602 18.417C10.4142 18.0968 9.565 17.36 9.35 16.6661C9.28562 16.4419 9.30703 16.4311 9.90907 16.4311L10.5325 16.4205L10.0058 16.175C9.38235 15.8653 8.81266 15.3422 8.53312 14.8083C8.32891 14.4241 8.07094 13.4525 8.1461 13.3777C8.16765 13.3457 8.39343 13.4097 8.6514 13.4952C9.39312 13.762 9.48984 13.6979 9.05984 13.2495C8.25359 12.4381 8.0064 11.2317 8.39343 10.0894L8.57609 9.57687L9.28562 10.2709C10.7367 11.6695 12.4458 12.5022 14.4022 12.7478L14.9396 12.8119Z" fill="white"/>
</svg>
