<svg width="33" height="32" viewBox="0 0 33 32" fill="none" xmlns="http://www.w3.org/2000/svg">
<path fill-rule="evenodd" clip-rule="evenodd" d="M16.9375 32C25.7741 32 32.9375 24.8366 32.9375 16C32.9375 7.16342 25.7741 0 16.9375 0C8.10092 0 0.9375 7.16342 0.9375 16C0.9375 24.8366 8.10092 32 16.9375 32ZM9.47599 9.76005C11.0191 9.35385 17.1674 9.35385 17.1674 9.35385C17.1674 9.35385 23.328 9.35385 24.8712 9.78466C25.7096 10.0062 26.3777 10.6831 26.5965 11.5324C27.0217 13.0955 27.0096 16.345 27.0096 16.345C27.0096 16.345 27.0096 19.5822 26.5965 21.133C26.3777 21.9946 25.7096 22.6592 24.8712 22.893C23.328 23.2992 17.1674 23.2992 17.1674 23.2992C17.1674 23.2992 11.0313 23.2992 9.47599 22.8807C8.63754 22.6469 7.96938 21.97 7.73849 21.1207C7.3375 19.5822 7.3375 16.3327 7.3375 16.3327C7.3375 16.3327 7.3375 13.0955 7.73849 11.5324C7.96938 10.6831 8.6497 9.9939 9.47599 9.76005ZM20.3268 16.3327L15.2112 13.3418V19.3113L20.3268 16.3327Z" fill="white"/>
</svg>
