<svg width="20" height="20" viewBox="0 0 20 20" fill="none" xmlns="http://www.w3.org/2000/svg">
<path d="M5.83268 18.3332H3.33268C2.89065 18.3332 2.46673 18.1576 2.15417 17.845C1.84161 17.5325 1.66602 17.1085 1.66602 16.6665V10.8332C1.66602 10.3911 1.84161 9.96722 2.15417 9.65466C2.46673 9.3421 2.89065 9.1665 3.33268 9.1665H5.83268M11.666 7.49984V4.1665C11.666 3.50346 11.4026 2.86758 10.9338 2.39874C10.4649 1.9299 9.82906 1.6665 9.16602 1.6665L5.83268 9.1665V18.3332H15.2327C15.6346 18.3377 16.0247 18.1968 16.3309 17.9365C16.6372 17.6762 16.8391 17.3139 16.8993 16.9165L18.0493 9.4165C18.0856 9.17763 18.0695 8.93374 18.0021 8.70171C17.9348 8.46969 17.8178 8.25508 17.6592 8.07277C17.5007 7.89045 17.3044 7.74478 17.084 7.64585C16.8636 7.54692 16.6243 7.4971 16.3827 7.49984H11.666Z" stroke="#41C47A" stroke-width="1.3" stroke-linecap="round" stroke-linejoin="round"/>
</svg>
