<svg width="942" height="427" viewBox="0 0 942 427" fill="none" xmlns="http://www.w3.org/2000/svg">
<path opacity="0.2" fill-rule="evenodd" clip-rule="evenodd" d="M292.734 296.633H219.891V6.125H201.102L0.203125 303.57V312.242H204.281V427H219.891V312.242H292.734V296.633ZM204.281 296.633H24.4844L180 64.8047L204.281 24.9141V296.633ZM586.362 298C587.944 284.681 588.734 270.447 588.734 255.297V178.984C588.734 122.328 577.654 78.3906 555.492 47.1719C533.523 15.7604 502.594 0.0546875 462.703 0.0546875C423.005 0.0546875 392.076 15.7604 369.914 47.1719C347.945 78.3906 336.961 121.943 336.961 177.828V254.141C336.961 269.722 337.806 284.342 339.497 298H355.262C353.468 284.595 352.57 270.168 352.57 254.719V179.273C352.57 127.435 362.013 87.2552 380.898 58.7344C399.977 30.0208 427.245 15.6641 462.703 15.6641C497.969 15.6641 525.141 29.9245 544.219 58.4453C563.49 86.9661 573.125 126.76 573.125 177.828V253.273C573.125 269.285 572.215 284.194 570.395 298H586.362ZM941.391 296.633H868.547V6.125H849.758L648.859 303.57V312.242H852.938V427H868.547V312.242H941.391V296.633ZM852.938 296.633H673.141L828.656 64.8047L852.938 24.9141V296.633Z" fill="#3692FE"/>
<path opacity="0.2" fill-rule="evenodd" clip-rule="evenodd" d="M584.179 426.781C579.048 397.251 569.582 372.741 555.781 353.25C533.813 322.417 502.979 307 463.281 307C423.776 307 392.846 322.609 370.492 353.828C356.598 373.232 347.022 397.55 341.763 426.781L357.729 426.781C362.471 402.691 370.483 382.324 381.766 365.68C401.229 336.966 428.401 322.609 463.281 322.609C498.354 322.609 525.43 336.966 544.508 365.68C555.493 382.213 563.316 402.58 567.976 426.781L584.179 426.781Z" fill="#3692FE"/>
<circle opacity="0.2" cx="418" cy="154" r="23" fill="#3692FE"/>
<circle opacity="0.2" cx="508" cy="154" r="23" fill="#3692FE"/>
<circle cx="432.75" cy="164" r="11.25" fill="#0C3664"/>
<circle cx="517.75" cy="169" r="11.25" fill="#0C3664"/>
</svg>
