<svg width="528" height="750" viewBox="0 0 528 750" fill="none" xmlns="http://www.w3.org/2000/svg">
<path opacity="0.16" fill-rule="evenodd" clip-rule="evenodd" d="M0 877.179L313.573 19.0166C353.362 -81.1749 427.545 -137.89 526.16 -139.53V-139.566L528.365 -139.557L530.573 -139.566V-139.53C629.188 -137.89 703.371 -81.1749 743.161 19.0166L1056.73 877.179L862.558 809.724L594.689 76.6458C578.387 36.1012 559.56 21.5031 528.365 20.8603C497.17 21.5031 478.346 36.1012 462.044 76.6458L194.175 809.724L0 877.179ZM664.807 550.41C664.807 625.367 604.549 686.137 530.207 686.137C455.873 686.137 395.611 625.367 395.611 550.41C395.611 475.449 455.873 414.683 530.207 414.683C604.549 414.683 664.807 475.449 664.807 550.41Z" fill="url(#paint0_linear)"/>
<defs>
<linearGradient id="paint0_linear" x1="528.367" y1="-139.566" x2="528.367" y2="877.179" gradientUnits="userSpaceOnUse">
<stop stop-color="white"/>
<stop offset="1" stop-color="white" stop-opacity="0"/>
</linearGradient>
</defs>
</svg>
