<svg width="1073" height="1062" viewBox="0 0 1073 1062" fill="none" xmlns="http://www.w3.org/2000/svg">
<path opacity="0.08" fill-rule="evenodd" clip-rule="evenodd" d="M0 1062L339.765 135.256C382.878 27.0579 463.257 -34.1897 570.109 -35.9603V-36L572.498 -35.9901L574.891 -36V-35.9603C681.743 -34.1897 762.122 27.0579 805.235 135.256L1145 1062L934.606 989.154L644.362 197.491C626.699 153.706 606.299 137.942 572.498 137.247C538.698 137.942 518.301 153.706 500.638 197.491L210.394 989.154L0 1062ZM720.337 709.116C720.337 790.064 655.045 855.69 574.494 855.69C493.951 855.69 428.655 790.064 428.655 709.116C428.655 628.165 493.951 562.543 574.494 562.543C655.045 562.543 720.337 628.165 720.337 709.116Z" fill="white"/>
</svg>
