<svg width="1148" height="1000" viewBox="0 0 1148 1000" fill="none" xmlns="http://www.w3.org/2000/svg">
<g opacity="0.08">
<path d="M668.885 590.534L1111.49 471.372C1118.15 469.579 1122.77 463.543 1122.77 456.649V209.138C1122.77 200.717 1115.94 193.891 1107.52 193.891H40.2468C31.8262 193.891 25 200.717 25 209.138V456.649C25 463.543 29.6261 469.579 36.2831 471.372L478.886 590.534" stroke="white" stroke-width="50"/>
<path d="M763.885 193.888V40.2468C763.885 31.8262 757.058 25 748.638 25H420.245C411.824 25 404.998 31.8262 404.998 40.2468V193.888" stroke="white" stroke-width="50"/>
<path d="M1080.55 489.448V959.754C1080.55 968.174 1073.72 975 1065.3 975H82.4687C74.0482 975 67.2219 968.174 67.2219 959.754V489.448" stroke="white" stroke-width="50"/>
<path d="M493.33 675.558V514.448H654.44V675.558H493.33Z" stroke="white" stroke-width="50"/>
</g>
</svg>
