<svg width="746" height="950" viewBox="0 0 746 950" fill="none" xmlns="http://www.w3.org/2000/svg">
<path opacity="0.08" d="M597.324 672.421L597.363 672.459L597.403 672.497L718.507 788.161C719.835 789.667 721.949 793.256 716.352 804.877C710.107 817.843 696.844 833.875 678.398 850.607C660.324 867.002 638.867 882.64 618.245 895.089C597.338 907.711 578.861 916.102 566.583 919.282C504.605 934.502 435.947 918.753 367.186 878.448C298.47 838.17 231.741 774.478 175.545 698.219C62.2589 544.487 -2.73363 347.724 36.4908 200.638C44.1675 171.852 62.5787 140.687 87.5014 112.138C112.313 83.7162 142.311 59.346 171.299 43.6092C201.155 27.4009 225.923 22.4638 242.028 26.1717C249.362 27.8603 255.169 31.3522 259.86 37.1939C264.786 43.3286 269.527 53.3996 271.923 69.6474L271.94 69.7599L271.957 69.8723L297.175 230.718C298.65 247.625 295.134 258.228 290.382 265.773C285.2 274.003 277.156 280.812 266.19 287.788C261.212 290.955 256.109 293.87 250.568 297.036C249.996 297.363 249.419 297.693 248.837 298.026C242.891 301.426 236.287 305.238 230.181 309.42C218.379 317.503 203.896 329.932 199.355 350.075C197.592 357.741 197.987 365.783 198.777 372.367C199.623 379.414 201.221 387.026 203.187 394.679C207.125 410.003 213.025 427.329 219.28 443.919C231.779 477.073 246.581 509.604 252.694 521.653L252.706 521.677L252.718 521.701C265.715 547.184 293.283 588.007 323.741 625.801C353.616 662.873 389.632 701.31 420.148 718.387L420.189 718.41L420.23 718.433C444.019 731.629 468.309 723.052 483.015 715.602C490.96 711.577 498.202 706.832 504.026 702.823C506.71 700.976 508.873 699.449 510.721 698.144C513.421 696.238 515.449 694.807 517.446 693.545C527.87 686.98 537.391 680.629 545.282 675.365C549.439 672.592 553.144 670.121 556.289 668.079C566.607 661.383 571.893 658.659 575.32 657.641C577.027 657.134 577.385 657.152 579.002 657.884C582.17 659.318 587.592 663.044 597.324 672.421Z" stroke="white" stroke-width="50"/>
</svg>
