<svg width="293" height="387" viewBox="0 0 293 387" fill="none" xmlns="http://www.w3.org/2000/svg">
<path d="M61.6517 102.715C62.3717 94.235 64.3917 86.215 67.4817 78.835C63.4817 77.265 58.9717 75.965 52.9217 76.905C41.4117 78.695 37.0317 76.965 30.3617 75.435C25.4117 74.295 24.5617 74.165 24.4517 74.175C24.3217 73.945 23.0417 70.935 22.2417 66.605C21.4617 62.355 4.62172 82.655 11.3117 83.865C17.9917 85.075 24.1417 91.235 30.6617 94.705C36.4017 97.755 50.2417 105.635 61.3817 107.895C61.4217 106.185 61.5017 104.455 61.6517 102.715Z" fill="#253B6D"/>
<path d="M128.452 59.7351C122.332 62.3751 120.442 60.2951 104.452 68.3951C91.1217 75.1551 88.1117 83.7551 77.4717 82.2451C73.3217 81.6551 66.7317 78.5351 67.4817 78.8251C64.3917 86.1951 62.3717 94.2251 61.6517 102.705C61.5017 104.445 61.4217 106.175 61.3817 107.885C62.8617 108.185 64.2917 108.385 65.6517 108.465C77.2417 109.125 82.4917 110.845 85.9817 111.735C92.6417 113.425 95.5217 108.385 95.5217 108.385C95.5217 108.385 101.852 105.375 107.982 105.615C112.822 105.805 121.772 104.795 128.122 102.835C135.292 100.625 142.922 95.5551 142.922 95.5551C142.922 95.5551 164.802 94.9551 168.882 81.0651C172.962 67.1751 172.162 65.1651 170.942 60.5351C168.902 52.8251 158.852 47.6951 147.652 50.1351C136.452 52.6051 133.332 57.6351 128.452 59.7351Z" fill="#237DBD"/>
<path d="M237.082 49.7951C237.082 49.7951 287.402 94.0551 287.982 173.315C288.562 252.585 256.512 315.135 256.512 315.135C256.512 315.135 263.852 282.925 230.212 290.405C204.702 296.075 182.022 316.945 140.052 303.735C114.642 295.735 121.072 263.145 100.932 274.945C84.0317 284.855 58.8617 267.825 58.8617 267.825C58.8617 267.825 94.2317 253.945 121.052 198.675C147.872 143.405 149.552 48.8451 149.552 48.8451C149.552 48.8451 174.532 42.2051 203.812 43.7851C224.832 44.9351 237.082 49.7951 237.082 49.7951Z" fill="#1B2647"/>
<path d="M95.2917 274.355C109.032 268.625 113.942 254.725 125.102 245.305C138.212 234.235 156.692 251.545 152.202 283.135C150.262 296.765 174.442 305.285 195.622 287.695C216.802 270.105 239.802 230.045 246.832 177.695C251.842 140.375 255.342 80.8452 219.982 46.8652C214.822 45.5452 209.282 44.4152 203.802 43.8052C174.662 40.5652 149.542 48.8652 149.542 48.8652C149.542 48.8652 147.852 143.435 121.042 198.695C94.2317 253.955 58.8617 267.845 58.8617 267.845C58.8617 267.845 77.2117 281.905 95.2917 274.355Z" fill="#18203A"/>
<path d="M126.842 212.185C148.572 157.175 155.072 77.7251 159.202 46.7551C152.902 47.7251 149.532 48.8651 149.532 48.8651C149.532 48.8651 140.832 137.885 114.022 193.145C87.2117 248.405 58.8417 267.845 58.8417 267.845C58.8417 267.845 60.7817 286.155 85.7617 289.655C98.5917 267.205 117.522 235.785 126.842 212.185Z" fill="#253B6D"/>
<path d="M85.7617 289.645C98.5817 267.205 117.512 235.785 126.842 212.185C148.572 157.175 155.072 77.7251 159.202 46.7551" stroke="#1B1733" stroke-width="2" stroke-miterlimit="10" stroke-linecap="round" stroke-linejoin="round"/>
<path d="M251.742 268.035C250.412 271.095 249.412 274.295 248.772 277.565C248.642 278.245 248.562 279.075 249.092 279.525C249.922 280.225 251.112 279.275 251.752 278.395C258.562 268.845 262.302 257.525 266.792 246.695C267.572 244.805 269.392 240.355 271.322 241.035C273.572 241.825 271.602 248.465 270.982 251.585C268.112 266.165 264.622 280.025 260.112 291.805" stroke="#1B1733" stroke-width="2" stroke-miterlimit="10" stroke-linecap="round" stroke-linejoin="round"/>
<path d="M153.242 191.125C146.932 188.635 144.582 191.805 142.282 200.995C139.982 210.185 132.042 233.555 133.422 248.715C134.802 263.875 141.202 272.945 141.202 272.945C141.202 272.945 140.052 280.085 143.082 289.645C144.092 292.835 145.892 295.935 145.892 295.935C145.892 295.935 147.922 312.375 154.082 329.275C159.292 343.565 160.632 350.095 160.862 353.295C161.552 362.975 149.452 365.455 139.802 369.135C130.152 372.815 128.382 377.595 131.642 377.595C145.242 377.595 175.742 377.595 175.742 377.595C175.742 377.595 184.492 379.145 178.982 361.975C176.762 355.055 174.722 351.895 173.932 345.025C172.702 334.375 179.242 315.135 178.972 314.315C177.752 310.705 176.352 304.835 173.132 300.245C169.912 295.655 166.282 290.345 166.562 286.115C167.062 278.565 177.412 262.365 178.792 252.715C180.172 243.085 188.152 204.915 153.242 191.125Z" fill="#237DBD"/>
<path d="M152.922 217.165C154.132 225.655 155.752 240.205 157.772 234.545C159.162 230.665 168.682 234.545 169.902 247.885C171.122 261.225 168.692 266.775 163.842 274.455C158.992 282.135 151.712 279.795 154.142 281.815C156.572 283.835 161.012 285.455 162.632 290.305C164.012 294.445 167.482 293.115 172.732 299.665C169.622 295.085 166.302 290.185 166.572 286.135C167.072 278.585 177.422 262.385 178.802 252.735C180.182 243.085 188.172 204.915 153.252 191.125C149.572 189.675 147.222 189.305 145.442 191.065C149.862 193.915 151.712 208.685 152.922 217.165Z" fill="#116DB0"/>
<path d="M134.582 106.915C134.252 112.335 133.742 124.195 139.362 133.825C146.122 145.415 148.652 152.605 149.502 161.265C149.862 164.935 150.142 170.965 149.892 174.505L215.482 174.105C215.012 170.775 214.732 166.135 215.562 161.145C217.172 151.475 218.142 148.895 224.912 141.485C231.682 134.075 247.792 109.895 249.412 92.1751C251.022 74.4451 262.022 52.8951 226.972 45.3851C193.732 38.2551 165.752 41.3151 151.012 48.6951C130.952 58.7251 129.282 87.3051 129.282 93.7451C129.282 100.185 134.822 103.005 134.582 106.915Z" fill="#378DCC"/>
<path d="M147.922 48.215C146.142 48.815 143.652 49.965 142.222 53.085C139.992 57.965 140.352 60.175 143.582 60.365C148.142 60.635 150.702 60.445 152.192 57.315C154.132 53.245 157.142 49.855 159.342 47.645C161.542 45.435 163.192 44.865 163.192 44.865C163.192 44.865 161.122 44.035 157.002 45.155C152.742 46.335 151.072 47.155 147.922 48.215Z" fill="#1B2647"/>
<path d="M147.512 57.1376C149.083 56.801 150.113 55.39 149.813 53.9859C149.512 52.5819 147.994 51.7165 146.423 52.053C144.851 52.3895 143.821 53.8006 144.122 55.2046C144.423 56.6087 145.94 57.4741 147.512 57.1376Z" fill="#2983C5"/>
<path d="M242.842 107.955C244.172 91.9552 231.592 80.0152 231.332 79.5752C229.372 82.7952 218.772 101.055 217.032 103.245C213.692 107.445 204.052 107.205 190.962 104.045C184.362 102.455 175.532 98.5652 167.532 100.235C163.252 101.125 166.432 100.245 173.112 101.835C185.752 104.845 194.982 110.715 197.632 112.815C202.002 116.275 201.772 116.805 201.442 118.075C200.372 122.205 193.442 124.855 188.972 124.555C184.502 124.255 186.172 131.315 188.882 136.725C191.592 142.135 201.322 145.555 200.422 156.985C200.192 159.895 199.632 165.945 201.592 165.515C207.722 164.175 212.652 164.715 215.052 165.155C215.962 157.955 217.772 150.525 220.052 147.405C221.652 145.205 229.082 137.655 232.992 131.265C236.122 126.145 240.742 118.625 242.952 113.515C241.972 112.345 242.702 109.605 242.842 107.955Z" fill="#237DBD"/>
<path d="M167.662 8.9651C169.222 3.8951 169.542 3.1751 172.832 1.9151C177.982 -0.0548955 197.702 -0.654896 207.352 0.825104C210.352 1.2851 211.212 1.3351 213.522 5.4751C215.912 9.7651 218.042 13.8151 220.462 21.8851C223.712 32.7051 224.372 44.8551 224.372 44.8551C224.372 44.8551 221.272 44.5751 212.802 47.3451C205.182 49.8351 192.852 56.8951 177.322 54.4851C172.152 53.6851 166.662 49.3751 164.502 47.4151C163.042 46.0951 161.632 45.8251 161.632 45.8251C161.632 45.8251 164.652 18.7251 167.662 8.9651Z" fill="#9CD6ED"/>
<path d="M216.692 176.715C215.762 174.775 215.312 172.955 215.032 168.295C200.472 172.255 184.152 173.575 167.602 173.575C161.652 173.575 155.802 173.285 150.072 172.745C148.702 177.915 147.792 181.585 146.692 185.335C144.662 192.275 144.022 194.925 144.022 194.925C144.022 194.925 148.142 195.495 151.902 200.125C155.662 204.755 158.792 211.245 162.332 215.815C169.852 225.545 180.582 225.245 180.582 225.245C180.582 225.245 185.122 210.315 191.782 201.925C198.442 193.535 206.972 189.875 213.682 191.955C224.432 195.295 223.712 211.205 223.712 211.205C223.712 211.205 226.802 196.425 223.322 189.195C219.852 181.965 218.212 179.905 216.692 176.715Z" fill="#253B6D"/>
<path d="M149.292 168.165C149.292 168.165 156.712 173.185 169.022 172.365C181.342 171.545 192.832 167.435 201.592 165.525C210.352 163.605 216.642 165.525 216.642 165.525L217.732 176.475C217.732 176.475 210.612 172.915 202.952 176.475C195.292 180.035 178.262 186.515 168.292 185.965C158.842 185.445 153.732 182.785 151.582 180.905C148.572 178.265 147.942 177.755 147.942 177.755L149.292 168.165Z" fill="#253B6D"/>
<path d="M217.742 176.475C217.742 176.475 210.622 172.915 202.962 176.475C195.302 180.035 178.272 186.515 168.302 185.965C158.852 185.445 153.742 182.785 151.592 180.905C148.582 178.265 147.952 177.755 147.952 177.755" stroke="#191D2B" stroke-width="2" stroke-miterlimit="10" stroke-linecap="round" stroke-linejoin="round"/>
<path d="M172.032 187.315C167.662 187.775 163.262 187.215 158.902 186.755C157.132 186.565 155.702 184.895 155.702 183.115C155.702 179.485 155.702 176.195 155.702 172.565C155.702 170.785 157.132 169.585 158.902 169.775C163.272 170.235 167.672 170.455 172.032 169.995C173.802 169.805 175.242 171.015 175.232 172.785C175.232 176.415 175.232 180.045 175.232 183.665C175.242 185.445 173.812 187.125 172.032 187.315Z" fill="#3CB8EB"/>
<path d="M285.112 157.945C276.602 157.945 268.432 156.605 260.832 154.145C259.602 158.265 258.682 162.865 260.132 168.815C262.882 180.135 261.532 184.645 260.562 191.415C259.842 196.445 259.782 197.295 259.802 197.405C259.582 197.555 256.692 199.085 252.442 200.245C248.272 201.385 245.312 208.275 246.542 209.545C248.642 211.725 248.022 213.045 248.102 212.765C248.102 212.765 245.622 219.025 248.402 220.665C252.972 223.355 252.392 220.355 253.692 220.685C259.892 222.245 262.212 222.415 264.172 222.045C267.332 221.445 269.342 219.535 269.342 219.535C269.342 219.535 269.902 216.445 270.552 209.675C271.192 202.915 276.822 196.275 279.732 189.485C282.292 183.515 288.972 169.055 290.292 157.765C288.592 157.885 286.862 157.945 285.112 157.945Z" fill="#253B6D"/>
<path d="M240.252 95.2951C240.252 95.2951 239.132 107.995 246.352 119.845C252.972 130.705 264.002 133.175 263.402 143.915C263.172 148.095 260.612 154.925 260.842 154.155C268.452 156.615 276.622 157.955 285.122 157.955C286.862 157.955 288.592 157.895 290.312 157.785C290.482 156.285 290.572 154.835 290.532 153.475C290.212 141.875 291.492 136.495 292.072 132.935C293.192 126.155 287.932 123.715 287.932 123.715C287.932 123.715 284.402 117.665 284.122 111.535C283.902 106.695 282.142 97.8651 279.652 91.7051C276.842 84.7451 271.152 77.5651 271.152 77.5651C271.152 77.5651 268.712 55.8151 254.532 52.9151C240.352 50.0151 238.412 50.9851 233.902 52.5951C226.392 55.2751 224.242 66.4551 227.622 77.4151C231.002 88.3651 240.252 95.2951 240.252 95.2951Z" fill="#378DCC"/>
<path d="M174.282 34.665C178.682 36.725 183.832 37.125 188.492 35.765C188.312 35.845 188.132 35.925 187.942 36.005" stroke="#1B1733" stroke-width="2" stroke-miterlimit="10" stroke-linecap="round" stroke-linejoin="round"/>
<path d="M171.892 20.4151C171.802 20.8751 171.762 21.3351 171.772 21.8051C171.782 22.2751 171.922 22.8251 172.362 22.9851C173.052 23.2251 173.522 22.2951 173.632 21.5751C173.722 20.9951 173.792 20.3751 173.552 19.8351C173.312 19.2951 172.632 18.9251 172.112 19.2051C171.672 19.4451 171.552 20.0151 171.482 20.5051C171.302 21.8151 171.282 23.3851 172.332 24.1751C172.502 24.3051 172.712 24.4051 172.912 24.3451C173.162 24.2751 173.292 24.0051 173.372 23.7651C173.662 22.9351 173.802 22.0451 173.782 21.1551C173.772 20.7151 173.712 20.2551 173.472 19.8951C173.232 19.5351 172.742 19.2951 172.332 19.4551C171.922 19.6151 171.762 20.2551 172.112 20.5151" fill="#1B1733"/>
<path d="M171.892 20.4151C171.802 20.8751 171.762 21.3351 171.772 21.8051C171.782 22.2751 171.922 22.8251 172.362 22.9851C173.052 23.2251 173.522 22.2951 173.632 21.5751C173.722 20.9951 173.792 20.3751 173.552 19.8351C173.312 19.2951 172.632 18.9251 172.112 19.2051C171.672 19.4451 171.552 20.0151 171.482 20.5051C171.302 21.8151 171.282 23.3851 172.332 24.1751C172.502 24.3051 172.712 24.4051 172.912 24.3451C173.162 24.2751 173.292 24.0051 173.372 23.7651C173.662 22.9351 173.802 22.0451 173.782 21.1551C173.772 20.7151 173.712 20.2551 173.472 19.8951C173.232 19.5351 172.742 19.2951 172.332 19.4551C171.922 19.6151 171.762 20.2551 172.112 20.5151" stroke="#1B1733" stroke-width="2" stroke-miterlimit="10" stroke-linecap="round" stroke-linejoin="round"/>
<path d="M189.572 21.5451C189.462 22.3451 189.352 23.1951 189.642 23.9451C189.932 24.6951 190.772 25.3151 191.542 25.0651C192.612 24.7251 192.672 23.2451 192.512 22.1351C192.422 21.4551 192.272 20.6851 191.682 20.3251C190.882 19.8351 189.782 20.5351 189.512 21.4351C189.242 22.3351 189.532 23.2951 189.832 24.1951C189.932 24.5151 190.052 24.8451 190.312 25.0651C190.992 25.6251 192.092 24.8451 192.142 23.9651C192.192 23.0851 191.612 22.3051 191.062 21.6251C190.902 21.4251 190.712 21.2151 190.462 21.2151C190.042 21.2251 189.902 21.7851 189.922 22.1951C189.952 23.1951 190.142 24.1851 190.472 25.1251" fill="#1B1733"/>
<path d="M189.572 21.5451C189.462 22.3451 189.352 23.1951 189.642 23.9451C189.932 24.6951 190.772 25.3151 191.542 25.0651C192.612 24.7251 192.672 23.2451 192.512 22.1351C192.422 21.4551 192.272 20.6851 191.682 20.3251C190.882 19.8351 189.782 20.5351 189.512 21.4351C189.242 22.3351 189.532 23.2951 189.832 24.1951C189.932 24.5151 190.052 24.8451 190.312 25.0651C190.992 25.6251 192.092 24.8451 192.142 23.9651C192.192 23.0851 191.612 22.3051 191.062 21.6251C190.902 21.4251 190.712 21.2151 190.462 21.2151C190.042 21.2251 189.902 21.7851 189.922 22.1951C189.952 23.1951 190.142 24.1851 190.472 25.1251" stroke="#1B1733" stroke-width="2" stroke-miterlimit="10" stroke-linecap="round" stroke-linejoin="round"/>
<path d="M175.682 13.905C172.602 12.205 169.602 13.665 168.762 15.485" stroke="#1B1733" stroke-width="2" stroke-miterlimit="10" stroke-linecap="round" stroke-linejoin="round"/>
<path d="M188.282 12.0951C190.872 7.44506 194.982 10.4351 197.492 13.0751" stroke="#1B1733" stroke-width="2" stroke-miterlimit="10" stroke-linecap="round" stroke-linejoin="round"/>
<path d="M224.552 44.8252C224.552 44.8252 219.072 49.5252 216.312 54.5452C213.122 60.3552 212.672 63.0952 215.872 64.5252C220.382 66.5352 223.002 67.2252 225.272 63.6852C228.232 59.0952 231.962 54.2652 234.712 52.1852C237.472 50.1052 240.552 49.4852 240.552 49.4852C240.552 49.4852 237.742 47.7052 232.622 46.2152C227.122 44.6252 224.552 44.8252 224.552 44.8252Z" fill="#1B2647"/>
<path d="M223.091 60.0232C223.447 58.6322 222.474 57.181 220.917 56.782C219.361 56.3829 217.809 57.1871 217.453 58.5781C217.096 59.969 218.069 61.4202 219.626 61.8192C221.183 62.2183 222.734 61.4142 223.091 60.0232Z" fill="#2983C5"/>
<path d="M136.772 102.985C135.862 101.985 134.952 100.985 134.042 99.9851C133.812 99.7251 133.572 99.3351 133.802 99.0751C133.912 98.9451 134.092 98.9151 134.262 98.8951C143.352 97.6351 152.662 96.1051 161.602 98.1851C153.972 100.655 145.302 99.7051 137.802 102.545L136.772 102.985Z" fill="#237DBD"/>
<path d="M146.292 80.6752C151.722 90.8552 157.302 100.935 163.162 110.875C171.482 100.795 181.102 92.2052 191.232 83.9952C191.152 79.6852 191.172 77.5352 191.312 73.4252C178.992 72.7652 166.672 72.1952 154.362 71.5352C150.782 74.9652 149.182 76.8052 146.292 80.6752Z" fill="#253B6D"/>
<path d="M167.432 86.7551C164.732 86.5351 161.882 88.6351 161.252 91.4951C160.622 94.3551 162.352 96.8951 164.952 97.1351C167.552 97.3651 170.142 95.2051 170.872 92.3251C171.612 89.4551 170.132 86.9751 167.432 86.7551Z" fill="#3CB8EB"/>
<path d="M175.042 98.1451C177.092 96.1551 178.152 95.1551 180.382 93.1651C180.082 86.3151 180.042 79.7651 180.352 72.9151C180.682 69.6151 178.912 67.6051 175.632 67.5251C172.342 67.4451 168.222 69.1851 165.492 72.1351C160.142 77.7251 155.532 84.0051 151.752 90.7551C152.972 92.9851 153.592 94.1051 154.852 96.3651C159.272 88.3251 164.092 81.2451 169.952 74.1751C170.872 73.1051 171.982 72.5151 172.902 72.5551C173.822 72.5951 174.292 73.2751 174.192 74.4651C173.772 82.3551 174.132 90.2951 175.042 98.1451Z" fill="#3CB8EB"/>
<path d="M79.3817 89.5651C79.7317 88.4351 80.0817 87.3051 80.4317 86.1851C80.5517 85.7951 80.6817 85.3951 80.9717 85.1051C81.2617 84.8151 81.7517 84.6851 82.0717 84.9351C82.3117 85.1151 82.3917 85.4351 82.4617 85.7351C82.7217 86.8451 83.0817 87.9351 83.5317 88.9851C83.8217 89.6651 84.4017 90.4451 85.1117 90.2351C85.4417 88.5551 85.4217 86.8051 85.0517 85.1351C84.9717 84.7651 84.8717 84.3951 84.9317 84.0151C84.9917 83.6451 85.2717 83.2751 85.6417 83.2451C86.0817 83.2051 86.4217 83.6151 86.6617 83.9951C87.2317 84.8851 87.7417 85.7951 88.2017 86.7451" stroke="#1B1733" stroke-width="2" stroke-miterlimit="10" stroke-linecap="round" stroke-linejoin="round"/>
<path d="M268.762 131.645C267.592 132.715 262.702 135.005 265.042 136.045C266.762 136.815 271.342 133.645 272.312 135.945C273.132 137.895 265.172 137.605 265.282 140.415C265.352 141.995 269.352 141.275 271.162 141.165" stroke="#1B1733" stroke-width="2" stroke-miterlimit="10" stroke-linecap="round" stroke-linejoin="round"/>
<path d="M240.252 95.2952C240.252 95.2952 239.132 107.995 246.352 119.845C252.972 130.705 264.002 133.175 263.402 143.915C263.172 148.095 260.612 154.925 260.842 154.155" stroke="#1B1733" stroke-width="2" stroke-miterlimit="10" stroke-linecap="round" stroke-linejoin="round"/>
<path d="M232.932 87.645C237.392 95.415 245.742 98.015 245.742 98.015" stroke="#1B1733" stroke-width="2" stroke-miterlimit="10" stroke-linecap="round" stroke-linejoin="round"/>
<path d="M280.322 158.405C273.532 158.005 265.612 156.395 259.442 154.405" stroke="#1B1733" stroke-width="2" stroke-miterlimit="10" stroke-linecap="round" stroke-linejoin="round"/>
<path d="M176.812 101.815C180.912 102.825 184.922 104.205 188.792 105.915C192.762 107.675 196.582 109.785 200.712 111.145C204.832 112.505 209.392 113.065 213.492 111.645C219.172 109.675 222.912 104.385 226.272 99.395" stroke="#1B1733" stroke-width="2" stroke-miterlimit="10" stroke-linecap="round" stroke-linejoin="round"/>
<path d="M61.7617 108.905C61.8517 107.275 62.1017 101.955 62.3817 100.325C63.4317 94.205 63.7717 89.865 65.5217 84.895" stroke="#1B1733" stroke-width="2" stroke-miterlimit="10" stroke-linecap="round" stroke-linejoin="round"/>
<path d="M192.842 197.645C201.292 188.395 210.292 187.905 214.822 188.755C219.342 189.605 220.582 192.485 222.222 199.475C223.862 206.465 229.602 223.665 233.302 244.225C237.002 264.785 230.552 272.685 230.552 272.685C230.552 272.685 232.192 274.745 233.022 280.085C233.842 285.435 234.662 289.135 234.662 289.135C234.662 289.135 240.912 296.945 244.202 303.115C247.492 309.285 248.212 317.405 248.212 317.405C248.212 317.405 248.582 331.425 248.412 339.125C248.042 355.465 248.722 360.405 248.722 360.405C248.722 360.405 251.822 367.435 258.862 373.595C264.992 378.955 269.792 381.245 269.792 383.725C269.792 386.405 268.482 386.045 259.032 386.045C253.552 386.045 247.162 386.355 244.692 382.655C242.222 378.955 235.992 376.555 235.992 376.555C235.992 376.555 233.082 373.965 236.392 363.815C237.252 361.195 237.322 354.565 233.202 344.695C229.092 334.825 217.482 321.665 217.482 321.665C217.482 321.665 214.572 311.025 216.362 300.375C217.532 293.435 210.112 290.905 207.552 281.815C201.912 261.775 200.412 277.665 185.582 243.805C179.512 229.955 178.532 220.065 182.232 214.315C185.932 208.565 187.692 203.285 192.842 197.645Z" fill="#378DCC"/>
<path d="M219.342 201.935C218.932 207.695 220.192 214.005 225.482 226.345C230.832 238.835 229.882 263.645 230.132 261.575C229.312 268.155 228.072 268.975 225.202 267.335C222.322 265.695 217.092 250.475 218.472 257.055C219.852 263.635 220.382 268.565 218.472 272.675C216.562 276.785 221.092 273.495 225.202 275.555C229.312 277.615 231.782 284.185 232.192 289.125C232.602 294.055 233.382 293.645 238.722 299.815C241.592 303.135 244.882 306.925 247.002 310.745C246.392 308.305 245.492 305.555 244.182 303.105C240.892 296.935 234.642 289.125 234.642 289.125C234.642 289.125 233.822 285.425 233.002 280.075C232.182 274.725 230.532 272.675 230.532 272.675C230.532 272.675 236.982 264.775 233.282 244.215C229.582 223.655 223.852 206.455 222.202 199.465C220.882 193.865 219.822 190.915 217.132 189.515C218.962 194.155 219.582 198.545 219.342 201.935Z" fill="#237DBD"/>
<path d="M173.932 345.035C172.782 335.055 178.452 317.545 178.942 314.695C167.582 315.615 157.292 308.235 148.382 309.545C149.672 315.275 151.512 322.225 154.082 329.275C159.292 343.565 160.632 350.095 160.862 353.295C161.552 362.975 149.452 365.455 139.802 369.135C130.152 372.815 128.382 377.595 131.642 377.595C145.242 377.595 175.742 377.595 175.742 377.595C175.742 377.595 184.492 379.145 178.982 361.975C176.762 355.065 174.722 351.895 173.932 345.035Z" fill="#253B6D"/>
<path d="M258.852 373.585C251.812 367.425 248.712 360.395 248.712 360.395C248.712 360.395 248.032 355.455 248.402 339.115C248.582 331.415 248.202 317.395 248.202 317.395C248.202 317.395 247.882 313.745 246.672 309.485C243.542 308.925 240.502 306.835 237.492 307.495C232.872 308.515 228.112 314.295 223.822 318.045C220.972 320.535 217.462 321.635 217.462 321.635C217.462 321.635 229.072 334.795 233.182 344.665C237.292 354.535 237.222 361.155 236.372 363.785C233.052 373.945 235.972 376.525 235.972 376.525C235.972 376.525 242.202 378.925 244.672 382.625C247.142 386.325 253.532 386.015 259.012 386.015C268.462 386.015 269.772 386.375 269.772 383.695C269.772 381.235 264.972 378.955 258.852 373.585Z" fill="#253B6D"/>
<path d="M164.182 361.775C167.972 361.965 170.502 362.635 171.472 362.945C172.492 363.265 173.112 363.515 173.612 362.565C174.222 361.425 173.432 360.015 172.412 359.235C170.892 358.065 168.602 356.335 170.052 355.085C170.652 354.565 171.622 355.365 172.402 355.515C172.572 355.545 172.772 355.565 172.892 355.455" stroke="#1B1733" stroke-width="2" stroke-miterlimit="10" stroke-linecap="round" stroke-linejoin="round"/>
<path d="M239.542 361.845C240.312 361.325 241.142 360.795 242.072 360.735C243.002 360.675 244.042 361.285 244.112 362.215C244.172 363.085 243.242 363.235 242.512 363.705C241.772 364.175 239.632 366.055 239.342 367.595C239.022 369.275 243.462 365.965 246.592 365.965" stroke="#1B1733" stroke-width="2" stroke-miterlimit="10" stroke-linecap="round" stroke-linejoin="round"/>
<path d="M21.7017 80.115C21.4617 80.935 21.8817 82.655 21.5617 83.975C21.2417 85.295 20.4117 87.695 16.9817 87.315C13.5517 86.935 11.4117 86.175 9.3317 85.225C4.9017 83.205 3.6917 81.495 2.4417 79.655C1.1917 77.815 3.4617 78.015 3.4017 76.455C3.3417 74.905 3.4817 67.155 3.7217 64.215C3.8617 62.485 1.3417 59.475 2.4917 58.735C4.3317 57.535 10.0717 59.625 11.7917 60.165C15.9717 61.465 19.3217 62.865 21.6717 66.435C23.3417 68.975 24.0817 70.935 24.3717 72.225C25.5117 77.355 22.1717 78.475 21.7017 80.115Z" fill="#253B6D"/>
<path d="M21.6517 66.4352C19.3017 62.8652 17.0917 62.0052 12.9517 60.5752C12.5817 60.4452 4.73169 56.7852 1.71169 59.0052C0.611692 59.8152 3.85169 62.4852 3.71169 64.2252C3.47169 67.1652 3.33169 74.9152 3.39169 76.4652C3.45169 78.0152 1.19169 77.8152 2.43169 79.6652C3.38169 81.0652 4.30169 82.3852 6.63169 83.8152C6.85169 83.6152 7.09169 83.4152 7.36169 83.2452C11.6517 80.4952 17.4117 79.2152 21.6517 81.6952C21.6217 81.0652 21.5917 80.4952 21.7017 80.1252C22.1717 78.4852 25.5217 77.3752 24.3617 72.2352C24.0617 70.9252 23.3217 68.9752 21.6517 66.4352Z" fill="#1B2647"/>
<path d="M24.9017 76.205C25.1117 75.345 25.9517 72.605 24.7017 69.975C23.7417 67.965 21.9417 65.505 20.9417 63.865C19.9417 62.225 17.8317 61.375 16.0617 60.845C14.2917 60.305 12.2117 59.855 10.8017 58.905C9.38167 57.955 8.31167 56.955 7.89167 56.345C7.47167 55.735 5.84167 56.305 5.84167 57.965C5.84167 59.625 6.06167 60.645 7.25167 61.715C8.44167 62.785 8.28167 62.935 9.15167 63.765C10.0117 64.595 12.2817 66.315 12.2817 66.315C12.2817 66.315 12.5217 71.155 13.6617 73.875C14.8017 76.595 17.2717 78.855 18.7317 79.725C20.1817 80.595 23.7817 80.865 24.9017 76.205Z" fill="#253B6D"/>
<path d="M0.841699 63.5051C-0.0283006 62.6551 -0.268301 61.5451 0.331699 60.4351C1.1417 58.9151 2.4017 58.0151 3.7617 59.2451C5.1217 60.4751 5.6717 61.0051 6.4717 61.4351C7.6117 62.0551 8.9317 62.9951 9.6117 63.5251C10.8317 64.4651 9.8417 67.5151 7.8917 67.0951C4.9817 66.4451 3.3517 65.9451 0.841699 63.5051Z" fill="#253B6D"/>
<path d="M1.87176 69.9151C0.561757 69.1351 0.251757 67.9051 1.02176 66.4951C1.79176 65.0751 3.25176 64.7351 4.42176 65.4851C5.44176 66.1451 8.50176 67.3951 9.33176 67.8451C10.1618 68.2851 13.2118 69.7451 12.3618 71.6851C11.6418 73.3151 9.46176 73.0451 6.89176 72.0051C5.54176 71.4651 2.22176 70.1151 1.87176 69.9151Z" fill="#253B6D"/>
<path d="M3.29169 75.5651C2.22169 75.1151 0.401693 74.2051 1.09169 72.2651C1.78169 70.3251 2.49169 70.0451 4.64169 70.7851C6.66169 71.4751 11.0017 72.9551 12.3117 73.3451C14.2917 73.9451 13.8917 77.6051 11.4217 77.4451C8.52169 77.2551 5.05169 76.3051 3.29169 75.5651Z" fill="#253B6D"/>
<path d="M1.80173 77.4451C2.07173 76.2251 2.35173 74.9551 7.00173 76.2651C11.6517 77.5751 12.7817 78.2051 12.6317 79.4251C12.4817 80.6451 10.3117 81.3851 6.33173 80.8851C2.35173 80.3851 1.41173 79.2451 1.80173 77.4451Z" fill="#253B6D"/>
</svg>
