<svg width="185" height="179" viewBox="0 0 185 179" fill="none" xmlns="http://www.w3.org/2000/svg">
<path d="M79.3 127.6C86.7 122.1 98.8 116.6 113.1 117.4C127.4 118.2 130.7 126.7 131.6 130.3C132.5 133.9 132.6 139.9 131 146.2C129.4 152.5 127.6 156.3 127.6 156.3C127.6 156.3 132 157.3 134.3 157.3C136.6 157.3 139.1 156.5 140.6 157.3C142.1 158.1 143.4 163.3 139.7 167.6C136 171.9 127.3 173 120.3 173.5C113.3 174 105.9 172.4 104.3 170C102.7 167.6 103 158.7 103 158.7C103 158.7 92.6 169.7 76.5 169.1C60.4 168.5 57.3 143.8 79.3 127.6Z" fill="#237DBD"/>
<path d="M150.9 53.6C150.9 53.6 154.9 48.9 155.9 48.3C156.9 47.6 159.4 47.6 161.2 45.7C163 43.8 166.2 41.6 167.5 39.3C168.8 37 164.9 33.8 162.5 31.6C160.2 29.4 157.3 24.4 154.5 26.7C151.7 29.1 149.3 36.3 148.1 39.4C147 42.6 143.3 45.6 144.3 47.1C145.3 48.6 150.9 53.6 150.9 53.6Z" fill="#9CD6ED"/>
<path d="M162.6 31.6C160.3 29.4 157.4 24.4 154.6 26.7C151.8 29.1 149.4 36.3 148.2 39.4C147.7 40.9 146.6 42.3 145.7 43.6C146.5 43.7 147.3 43.9 148 44.3C147.4 44 149.4 44.1 149.4 44.1C149.9 44 150.6 43.8 151.2 43.7C152.1 43.5 152.1 43.5 152.7 43.1C151.4 43.9 152.8 42.7 153.4 42C155.5 39.4 159.8 39.9 162 42C162.5 42.5 162.9 43.1 163.2 43.8C164.8 42.4 166.6 40.9 167.5 39.2C168.9 36.9 165 33.7 162.6 31.6Z" fill="#3CB8EB"/>
<path d="M162 40.7002C161.4 39.8002 161.7 38.6002 162.5 38.1002L165.2 36.3002C166.1 35.7002 167.3 36.0002 167.8 36.8002C168.4 37.7002 168 38.6002 167.3 39.4002C166.5 40.3002 165.7 40.8002 164.6 41.2002C163.7 41.6002 162.6 41.6002 162 40.7002Z" fill="#9CD6ED"/>
<path d="M159.4 38.2999L159.2 38.0999C158.4 37.2999 158.5 35.8999 159.3 35.0999L162.5 32.0999C163.3 31.2999 164.7 31.3999 165.5 32.1999L165.7 32.3999C166.5 33.1999 166.4 34.5999 165.6 35.3999L162.4 38.3999C161.5 39.1999 160.2 39.1999 159.4 38.2999Z" fill="#9CD6ED"/>
<path d="M167 26.2C167 26.1 166.9 26.1 166.9 26C166.8 25.9 166.8 25.9 166.7 25.8C164.7 23.5 163.4 22.3 162.4 23.1C162.4 23.1 158.6 25.5 161.7 29.6C161.7 29.7 161.9 29.9 161.9 29.9C165 34 168.3 31 168.3 31C169.5 30.3 168.7 28.7 167 26.2Z" fill="#237DBD"/>
<path d="M167.4 25.4999C164.3 21.3999 158.6 20.4999 154.7 23.4999C150.8 26.4999 150.1 32.1999 153.2 36.2999C156.3 40.3999 162 41.2999 165.9 38.2999C169.8 35.2999 170.6 29.5999 167.4 25.4999ZM155.3 34.6999C153.1 31.7999 153.6 27.7999 156.3 25.6999C159 23.5999 163.1 24.1999 165.3 27.0999C167.5 29.9999 167 33.9999 164.3 36.0999C161.5 38.1999 157.5 37.5999 155.3 34.6999Z" fill="#237DBD"/>
<path d="M170.1 23.2999C170.1 23.2999 170 23.1999 170 23.0999C167.1 19.2999 162.5 14.3999 160 16.1999C157.7 17.8999 158.7 21.8999 163.3 28.0999C163.3 28.0999 163.4 28.2999 163.5 28.2999C168.2 34.3999 171.7 36.3999 174 34.6999C176.5 32.8999 173 27.0999 170.1 23.2999Z" fill="#253B6D"/>
<path d="M177.3 23.6C178.5 22.7 180.3 20 178.3 17.2C178.3 17.2 178.2 17.1 178.2 17C176.1 14.3 173 15.4 171.8 16.3C170 17.7 170.1 19.9 168.5 21.1C167.4 21.9 165.8 22.2 165 22.8C164.5 23.2 164.6 24.4 166.1 26.3L166.2 26.4C167.7 28.3 168.8 28.7 169.3 28.3C170.1 27.7 170.9 26.2 171.9 25.4C173.4 24.3 175.5 25 177.3 23.6Z" fill="#3CB8EB"/>
<path d="M155.8 35.7001C155 34.8001 155 33.4001 155.9 32.6001L159.3 28.8001C161.3 27.0001 164.4 30.5001 162.4 32.5001L158.9 35.8001C158 36.7001 156.6 36.6001 155.8 35.7001Z" fill="#9CD6ED"/>
<path d="M154.4 32.7C153.4 32 153.2 30.7 153.6 29.7C154.2 28.3 155.2 27.1 155.8 26.2C156.4 25.2 158 24.9 158.9 25.6L159.1 25.7C160.1 26.3 160.3 27.6 159.7 28.6C159.1 29.5 157.8 31.1 157.1 32C156.6 33 155.4 33.4 154.4 32.7Z" fill="#9CD6ED"/>
<path d="M142.4 44.9001C144.2 42.7001 145.1 41.1001 144.7 38.7001C144.4 36.4001 145.9 30.5001 147.7 28.9001C149.5 27.2001 150.5 24.6001 151.5 24.7001C152.5 24.9001 154 26.0001 153.8 27.7001C153.6 29.4001 151.8 31.0001 151.8 32.0001C151.8 33.0001 153.3 35.2001 153.8 37.0001C154.3 38.8001 152.3 43.2001 150.5 44.8001C148.8 46.6001 142.4 44.9001 142.4 44.9001Z" fill="#9CD6ED"/>
<path d="M91.1 50.2C94.1 50.3 100.4 53.4 102.4 54.4C104.4 55.4 110.5 55.5 116 56.2C120.8 56.8 121.6 58.2 121.6 58.2C121.6 58.2 122.8 56.5 124.1 56.4C125.4 56.2 126.9 57 126.9 57C126.9 57 126 55.4999 130.4 53.0999C137 49.2999 142.9 42.7 142.9 42.7C142.9 42.7 151.2 50 153.1 53.5C154.9 57 154.8 57.5 154.8 57.5C154.8 57.5 145 69.2 139.5 73.8C134 78.5 129.5 79.5 128.3 80C127.1 80.5 123.6 82 117.6 83C111.6 84 98.1 85.7999 91.1 85C86.2 84.5 81.7 50.1 91.1 50.2Z" fill="#253B6D"/>
<path d="M90.3 55.9001C91.1 54.9001 92.1 54.2001 93.4 53.9001C91.5 54.4001 90.7 55.1001 90.3 55.9001Z" fill="#1B2647"/>
<path d="M153.1 53.6C152.5 52.5 145.5 62.4 135.5 68.5C132.2 70.5 131 67.9 129.9 70C129 71.6 126.6 70.3 125.5 70.6C124.2 71 124.9 73.1 120.2 74.7C114.2 76.8 107.4 76.6 101.5 75C96 73.5 89.9 70.1 89.8 63.6C89.8 63.4 89.8 63.1 89.8 62.9C89.8 62.8 89.7 62.8 89.7 62.7C88.6 60.9 88.7 58.6 89.6 56.8C89.5 56.7 89.5 56.6 89.4 56.5C88.2 54.3 88.5 52.1 89.6 50.5C82.1 53.8 86.3 84.5 91 85C98 85.8 111.5 84 117.5 83C123.5 82 127 80.5 128.2 80C129.4 79.5 133.9 78.5 139.4 73.8C144.9 69.1 154.7 57.5 154.7 57.5C154.7 57.5 154.9 57.1 153.1 53.6Z" fill="#1B2647"/>
<path d="M28.8 66.7001C31 65.3001 64.3 52.2002 74.8 49.9002C85.3 47.6002 91.8 48.1002 94.1 53.7002C96.4 59.3002 99.2 76.8002 97.3 87.5002C96.1 94.2002 96.9 97.2002 97.1 99.5002C97.2 100.9 101.7 115 98 133.2C96.8 139 94.3 141.4 87.8 150.5C81.3 159.7 76.9 170.5 51.1 170.7C25.3 170.9 23.2 136.6 23.1 127.1C23 117.7 19.8 72.5001 28.8 66.7001Z" fill="#378DCC"/>
<path d="M48 121.8C47.3 115.9 40.7 110.1 42 103.4C43.5 95.3 42.7 86.8 38.2 82.5C34.6 79 33 67.3 27.5 67.8C20 76.8 22.9 118.1 23.1 127.1C23.2 136.6 25.3 170.8 51.1 170.7C76.9 170.5 83.6 158.2 90.1 149.1C93.5 144.3 96.3 138.1 97.8 134.2C95.7 138.3 89.2 141.9 82.5 142.8C70.4 144.4 49.5 135 48 121.8Z" fill="#116DB0"/>
<path d="M100.8 73.7C99.6 77.7 99 83.4 102 79.5C105 75.7 109.8 71.2 108 75.3C106.2 79.5 103.9 82.6 107.1 81" stroke="#1B1733" stroke-width="2" stroke-miterlimit="10" stroke-linecap="round" stroke-linejoin="round"/>
<path d="M71.9 14.9C68.8 10.6 68.3 10 64.8 9.80004C59.3 9.60004 39.7 15.3 31 19.7C28.3 21.1 27.5 21.4 26.6 26.1C25.7 30.9 25.6 35.8 25.8 44.2C26.1 55.5 29.4 66.8 29.4 66.8C29.4 66.8 33.7 65.9 42.6 65.9C50.6 65.9 58.3 66.1 69.5 62.6C75.1 60.8 80.3 57.1 82.9 53.2C85.2 49.7 86.3 48.6 86.3 48.6C86.3 48.6 77.8 23.2 71.9 14.9Z" fill="#9CD6ED"/>
<path d="M71.2 28.9999C71.4 29.2999 71.6 29.5999 71.7 29.8999C71.8 30.1999 71.9 30.6999 71.6 30.8999C71.1 31.2999 70.4 30.7999 70.1 30.3999C69.8 29.9999 69.6 29.5999 69.6 29.0999C69.6 28.5999 70.1 28.0999 70.6 28.0999C71 28.0999 71.3 28.4999 71.5 28.7999C72.1 29.6999 72.6 30.7999 72 31.6999C71.9 31.8999 71.8 31.9999 71.6 31.9999C71.4 31.9999 71.2 31.8999 71 31.7999C70.5 31.2999 70.1 30.6999 69.8 30.0999C69.7 29.7999 69.6 29.3999 69.7 29.0999C69.8 28.7999 70.1 28.3999 70.5 28.3999C70.9 28.3999 71.2 28.7999 71 29.0999" fill="#1B1733"/>
<path d="M71.2 28.9999C71.4 29.2999 71.6 29.5999 71.7 29.8999C71.8 30.1999 71.9 30.6999 71.6 30.8999C71.1 31.2999 70.4 30.7999 70.1 30.3999C69.8 29.9999 69.6 29.5999 69.6 29.0999C69.6 28.5999 70.1 28.0999 70.6 28.0999C71 28.0999 71.3 28.4999 71.5 28.7999C72.1 29.6999 72.6 30.7999 72 31.6999C71.9 31.8999 71.8 31.9999 71.6 31.9999C71.4 31.9999 71.2 31.8999 71 31.7999C70.5 31.2999 70.1 30.6999 69.8 30.0999C69.7 29.7999 69.6 29.3999 69.7 29.0999C69.8 28.7999 70.1 28.3999 70.5 28.3999C70.9 28.3999 71.2 28.7999 71 29.0999" stroke="#1B1733" stroke-width="1.5" stroke-miterlimit="10" stroke-linecap="round" stroke-linejoin="round"/>
<path d="M53.4 34.6999C54 35.1999 54.6 35.6999 54.8 36.3999C55.1 37.0999 55 37.9999 54.3 38.1999C53.4 38.4999 52.5 37.4999 51.9 36.6999C51.5 36.1999 51.2 35.4999 51.3 34.9999C51.6 34.1999 52.7 34.0999 53.4 34.6999C54.1 35.0999 54.5 35.8999 54.9 36.6999C55 36.9999 55.2 37.2999 55.1 37.5999C55 38.3999 53.9 38.3999 53.3 37.7999C52.7 37.1999 52.6 36.2999 52.5 35.5999C52.5 35.3999 52.5 35.0999 52.6 34.9999C52.9 34.7999 53.3 35.0999 53.5 35.3999C54.1 36.0999 54.6 36.8999 55 37.7999" fill="#1B1733"/>
<path d="M53.4 34.6999C54 35.1999 54.6 35.6999 54.8 36.3999C55.1 37.0999 55 37.9999 54.3 38.1999C53.4 38.4999 52.5 37.4999 51.9 36.6999C51.5 36.1999 51.2 35.4999 51.3 34.9999C51.6 34.1999 52.7 34.0999 53.4 34.6999ZM53.4 34.6999C54.1 35.0999 54.5 35.8999 54.9 36.6999C55 36.9999 55.2 37.2999 55.1 37.5999C55 38.3999 53.9 38.3999 53.3 37.7999C52.7 37.1999 52.6 36.2999 52.5 35.5999C52.5 35.3999 52.5 35.0999 52.6 34.9999C52.9 34.7999 53.3 35.0999 53.5 35.3999C54.1 36.0999 54.6 36.8999 55 37.7999" stroke="#1B1733" stroke-width="1.5" stroke-miterlimit="10" stroke-linecap="round" stroke-linejoin="round"/>
<path d="M64.8 20.5C66.4 19.4 68.4 19.5 69.5 20.4" stroke="#1B1733" stroke-width="2" stroke-miterlimit="10" stroke-linecap="round" stroke-linejoin="round"/>
<path d="M42.2 28.8999C42.1 26.8999 43.3 25.2999 44.6 24.8999" stroke="#1B1733" stroke-width="2" stroke-miterlimit="10" stroke-linecap="round" stroke-linejoin="round"/>
<path d="M73.2 44.3C72.9 48 66.1 50.9 62 49.6" stroke="#1B1733" stroke-width="2" stroke-miterlimit="10" stroke-linecap="round" stroke-linejoin="round"/>
<path d="M33.9 114.3C33.9 119.9 37.1 124.5 40.6 124.5C43.2 124.5 44.7 120.1 44.7 114.5C44.7 108.9 41.7 104.1 39.9 104.1C36.4 104.1 33.9 108.7 33.9 114.3Z" fill="#18203A"/>
<path d="M35.3 106.4C35.3 106.4 37.7 107 40.3 104.6C42.9 102.2 47.2 101.3 49.7 101.2C52.2 101.1 54.5 102.6 56.4 103.5C58.3 104.4 60 106.3 60.2 107.8C60.5 109.9 58.6 109.7 58.6 109.7C58.6 109.7 61.4 111.5 60.7 113.5C60.2 115 58.8 115.1 58.8 115.1C58.8 115.1 60.1 116.4 59 117.9C57.6 119.6 54.4 117.7 49.2 117C48.5 116.9 46.3 116.4 46.1 116.9C46 117.4 48.2 117.3 49.9 118C51.4 118.6 54 119.6 54.9 120.7C55.3 121.2 55.1 122.2 54.6 122.5C53.1 123.4 50.4 122.1 48.3 121.5C47.5 121.3 43 120.7 43 120.6C43 120.6 39.8 122.6 35.8 123.5C31.8 124.4 30.3 110.4 35.3 106.4Z" fill="#9CD6ED"/>
<path d="M36.8 111.5C36.9 109.5 31.7 124.3 35.7 123.4C39.7 122.5 42.9 120.5 42.9 120.5C39.4 120.4 36.5 115.7 36.8 111.5Z" fill="#3CB8EB"/>
<path d="M26.8 68.1C23.5 68.4 19.7 70.9 16.2 74.2C11.9 78.2 9.5 85.8 9.1 92.5C8.9 96.9 6.2 101.3 7.1 112C7.5 117 9.3 122.3 10.6 123.3C12 124.3 18 128.9 28.7 127.1C35.4 126 40.5 124.5 40.5 124.5C40.5 124.5 35.9 122.7 34.9 118.3C34.1 114.9 34.1 111 35.8 108C37.3 105.4 39.8 104 39.8 104L29.9 104.7C29.9 104.7 31.5 104.1 33 99.1C34.2 95.1 36.2 86.3 35 81.3C33.7 75.3 31.3 67.8 26.8 68.1Z" fill="#253B6D"/>
<path d="M33.1 99.2C34.3 95.2 36.3 86.4 35.1 81.4C35.1 81.3 35 88.1 33.3 89.2C32 90 30.9 87.9 30.4 88C27 88.5 34.4 96.6 26.6 104C23.8 106.6 19.2 107.2 17.9 109.5C17 111.3 20.7 111.8 23.1 109.4C27.6 104.8 30 104.8 30 104.8C30 104.8 31.6 104.2 33.1 99.2Z" fill="#1B2647"/>
<path d="M35 118.4C35 118.3 35 118.3 35 118.4C31.3 121 27.5 123.3 23.1 124.2C20.8 125.1 18.5 125.8 16.1 126.3C19.1 127.4 23.3 128.1 28.7 127.2C35.4 126.1 40.5 124.6 40.5 124.6C40.5 124.6 36 122.7 35 118.4Z" fill="#1B2647"/>
<path d="M30 65.6002C32.2 65.8002 35.6 66.2002 41.4 72.2002C44.9 75.7001 45.5 78.8002 43.5 80.6002C40.8 83.1002 39 84.3001 36.6 82.2001C32.9 78.9001 30.3 75.4002 24.1 73.2002C21.7 72.3001 18.8 71.7002 18.8 71.7002C18.8 71.7002 20 70.4001 23.3 68.2001C26.9 65.7001 28.4 65.5002 30 65.6002Z" fill="#18203A"/>
<path d="M40.9175 78.8868C41.9394 78.2297 42.3078 76.9815 41.7404 76.0989C41.1729 75.2163 39.8844 75.0335 38.8624 75.6906C37.8405 76.3477 37.472 77.5959 38.0395 78.4785C38.607 79.3611 39.8955 79.5439 40.9175 78.8868Z" fill="#2983C5"/>
<path d="M47.5 110.6C46.2 110.5 46.2 111.8 47.3 112C48.1 112.1 52.9 113 53.5 113.1C54.5 113.3 58.7 115 58.7 115C58.7 115 59.1 115 59.6 114.6C59.2 114.4 58.8 114.1 58.3 113.7C57.5 113.2 54.9 112 54.1 111.7C53.3 111.4 48.9 110.7 47.5 110.6Z" fill="#3CB8EB"/>
<path d="M49.1 104.8C47.6 104.8 47.7 105.6 49.2 106C49.9 106.2 53.9 107.2 55.1 107.7C55.8 108 57.4 109 58.6 109.7C58.5 109.6 58.5 109.6 58.5 109.6C58.5 109.6 59.4 109.7 59.8 109.1C58.5 108.4 56 106.7 55.6 106.5C54.9 106.1 50.6 104.8 49.1 104.8Z" fill="#3CB8EB"/>
<path d="M86 47.9001C86 47.9001 87.2 50.6001 87.3 56.7001C87.4 62.0001 85.6 64.6001 90.2 65.8001C93.2 66.6001 95.8 65.8001 96 62.9001C96.1 60.0001 96.3 55.5001 94.9 52.6001C93.5 49.7001 92.1 49.2001 89.6 48.5001C88 48.2001 86 47.9001 86 47.9001Z" fill="#18203A"/>
<path d="M92.6958 59.8052C91.6016 59.4209 90.4327 59.912 90.085 60.9021C89.7374 61.8921 90.3426 63.0062 91.4369 63.3905C92.5312 63.7747 93.7001 63.2836 94.0477 62.2935C94.3954 61.3035 93.7901 60.1894 92.6958 59.8052Z" fill="#2983C5"/>
<path d="M140.5 157.2C140.2 157 139.8 157 139.4 156.9C138.5 157.1 137.8 158.4 134.5 160.4C131.1 162.4 124.1 163.1 119.4 162.5C109.8 161.2 102.1 168.6 106.8 171.6C109.9 172.9 115.2 173.7 120.2 173.3C127.2 172.8 135.9 171.7 139.6 167.4C143.3 163.1 142 158 140.5 157.2Z" fill="#253B6D"/>
<path d="M122.9 154.2C124.2 156.4 127.5 156.2 127.5 156.2C127.5 156.2 129.2 152.3 130.9 146.1C131.1 145.3 131.3 144.5 131.4 143.8C130.1 146.6 128.6 149.4 127.6 150.7C125.4 153.6 121.3 151.4 122.9 154.2Z" fill="#116DB0"/>
<path d="M107.8 127.1C107.8 122.3 103.9 126.3 103.4 131C103 135.1 101.9 134.5 101.8 130.5C101.7 127.7 99.2 127.8 100.3 132.9C101 136.2 98.4 136.8 97.8 134.6C91.7 148.1 83.1 157.3 66 164.3C68 166.2 73.1 168.9 76.6 169.1C92.7 169.7 103.1 158.7 103.1 158.7C103.1 158.7 102.9 163 103.4 166.4C103.6 164.7 104.4 164.1 105 162.5C107.1 157.2 105.9 148 104 142.5C103.3 140.4 104 137.9 104.7 136.4C107.1 130.9 107.8 128.7 107.8 127.1Z" fill="#116DB0"/>
<path d="M127 153.6C127 153.6 125.4 151.1 122.3 149.8C119.2 148.5 119 150.4 122 152.4C126.2 155.2 124.8 155.5 121.7 154.7C120.2 154.4 117 154.4 117 154.4" stroke="#1B1733" stroke-width="2" stroke-miterlimit="10" stroke-linecap="round" stroke-linejoin="round"/>
<path d="M96.2 138.5C96.2 138.5 94.3 142.4 91.4 146.8C88.7 150.7 85.5 153.1 85.5 153.1" stroke="#1B1733" stroke-width="2" stroke-miterlimit="10" stroke-linecap="round" stroke-linejoin="round"/>
<path d="M98.3 144.9C98.3 145.3 97.3 147.4 94 150.7C90.7 154 88 155.2 88 155.2" stroke="#1B1733" stroke-width="2" stroke-miterlimit="10" stroke-linecap="round" stroke-linejoin="round"/>
<path d="M15 139.7C17 134.4 23.2 128.9 32 127.9C40.9 126.9 49.3 134 52.5 136.5C55.7 139 55.9 139.4 55.9 139.4L59.9 140C59.9 140 64.1 142.9 67.6 146C71.1 149 82.5 152.9 87.4 152.8C92.3 152.7 97.8 153.7 100.4 153.4C103 153.1 105.2 155.2 104.7 158.3C104.2 161.4 103.6 163.3 102.8 165.9C102 168.5 96.4 176.8 91.7 175.4C87 174 81 169.7 81 169.7C81 169.7 63.7 170.8 58 172.2C52.3 173.6 33 174.7 27.7 171.3C22.4 167.9 8.60001 156.5 15 139.7Z" fill="#378DCC"/>
<path d="M101.6 155.5C100.2 155.5 98.5 156.5 97.7 159.3C96.9 162.1 96.2 162.9 94.2 165.9C92.4 168.6 91.4 173.1 92.2 175.6C96.8 176 101.9 168.5 102.6 166C103.4 163.4 104 161.5 104.5 158.4C104.6 157.5 104.6 156.8 104.3 156.1C103.5 155.5 102.5 155.5 101.6 155.5Z" fill="#253B6D"/>
<path d="M42.9 133.9C38.5 133.9 41.5 138.4 46 139.1C49.2 139.6 52.5 139.1 55.8 139.3C55.5 139 55.3 138.2 53.2 136.6C51.9 135.6 50.2 134.1 47.5 132.8C49.1 136.6 44.7 133.9 42.9 133.9Z" fill="#237DBD"/>
<path d="M89.8 173.5C87 170.8 83.3 169.8 82.8 165C82.3 160.2 80.6 157.8 79.6 161.7C78.6 165.6 82.1 167.7 66.4 169.7C50.7 171.7 45.9 171.5 40.1 168.5C34.3 165.5 28.6 160.8 25.4 161.2C22.2 161.6 24.1 162.1 27.4 165.3C30.7 168.5 29.6 168.3 25.9 166.7C23.6 165.6 21.8 165.4 21.9 166.9C24 169 26.2 170.5 27.7 171.5C33 174.9 52.2 173.8 58 172.4C63.8 171 81 169.9 81 169.9C81 169.9 86.8 174.3 91.5 175.7C91.8 175.8 92.2 175.8 92.5 175.8C91.3 174.7 90.3 174 89.8 173.5Z" fill="#116DB0"/>
<path d="M23.1 160.9C23.1 160.9 30.6 162.6 35.8 165.9C41 169.2 45.2 172.2 53.2 172.2C61.2 172.2 80.2 169.8 80.2 169.8" stroke="#1B1733" stroke-width="2" stroke-miterlimit="10" stroke-linecap="round" stroke-linejoin="round"/>
<path d="M77.6 166.4C77.6 166.4 77.7 162.5 80.1 159.6C82.4 156.7 84.2 155.4 82.8 158.8C80.1 165.1 82 166.6 82 166.6C82 166.6 82.8 163.8 84.2 161.9" stroke="#1B1733" stroke-width="2" stroke-miterlimit="10" stroke-linecap="round" stroke-linejoin="round"/>
<path d="M18.9 103.7C18.9 103.7 25.4 102.1 25.9 103.3C26.9 105.7 17.4 107 18.8 109.8C20.1 112.6 27 106.7 27 106.7" stroke="#1B1733" stroke-width="2" stroke-miterlimit="10" stroke-linecap="round" stroke-linejoin="round"/>
<path d="M80.1 169.4C80.1 169.4 83.5 171.7 86.1 173.1C88.7 174.4 92.2 176.8 95 175.1C97.8 173.4 99.3 171.8 100.8 168.8C102.3 165.8 103.8 163.1 104.2 159.7C104.6 156.3 104.7 154.8 101.7 155.5C98.7 156.2 97.6 157.7 97.5 158.9C97.4 160.1 97.7 160.9 97.7 160.9" stroke="#1B1733" stroke-width="2" stroke-miterlimit="10" stroke-linecap="round" stroke-linejoin="round"/>
<path d="M56.1 77.2C55.6 80.3 55.1 83.5 54.7 86.6C62 92.2 68.9 97.6 75.5 102.7C80 93.8 83.7 86.2 88.9 78.4C87.5 76.1 86.1 73.7 84.6 71.3C74.4 72.9 65.7 74.4 56.1 77.2Z" fill="#253B6D"/>
<path d="M72.6 84.9002C70.4 85.5002 69 87.7002 69.4 89.9002C69.8 92.1002 71.8 93.3002 73.9 92.6002C76 92.0002 77.5 89.8002 77.2 87.7002C76.8 85.6002 74.8 84.3002 72.6 84.9002Z" fill="#3CB8EB"/>
<path d="M69.9 69.0001C67.2 69.5001 65.2 71.8001 64.7 74.8001C63.7 80.5001 62.7 86.4001 61.9 92.3001C63.2 93.3001 64.5 94.3001 65.7 95.3001C66.8 88.6001 68 81.9001 69.2 75.4001C69.4 74.4001 69.9 73.7001 70.7 73.5001C71.4 73.3001 72.2 73.8001 72.7 74.6001C76 80.0001 78.9 85.0001 81.9 90.1001C82.8 88.6001 83.6 87.0001 84.5 85.5001C81.9 81.1001 79.4 76.9001 76.7 72.3001C75.3 69.8001 72.6 68.5001 69.9 69.0001Z" fill="#3CB8EB"/>
</svg>
