<svg width="1284" height="399" viewBox="0 0 1284 399" fill="none" xmlns="http://www.w3.org/2000/svg">
<mask id="mask0" mask-type="alpha" maskUnits="userSpaceOnUse" x="0" y="0" width="1284" height="399">
<path d="M0 4.00001C0 1.79087 1.79086 0 4 0H1280C1282.21 0 1284 1.79086 1284 4V395C1284 397.209 1282.21 399 1280 399H3.99996C1.79083 399 0 397.209 0 395V4.00001Z" fill="url(#paint0_linear)"/>
</mask>
<g mask="url(#mask0)">
<g opacity="0.08">
<path d="M391.359 279.588L414.036 290.112C419.556 278.218 414.948 264.079 403.479 257.722L391.359 279.588ZM340.084 376.992L361.522 389.854H361.522L340.084 376.992ZM388.625 438.905L381.25 415.017H381.25L388.625 438.905ZM554.22 334.488L558.12 309.794C551.485 308.746 544.708 310.412 539.316 314.416L554.22 334.488ZM1037.61 25.3839C1037.61 102.98 995.729 175.135 924.247 228.747C852.756 282.365 752.848 316.268 641.429 316.268V366.268C762.62 366.268 873.3 329.457 954.247 268.747C1035.2 208.032 1087.61 122.246 1087.61 25.3839H1037.61ZM641.429 -265.5C752.848 -265.5 852.756 -231.598 924.247 -177.98C995.729 -124.368 1037.61 -52.2119 1037.61 25.3839H1087.61C1087.61 -71.4782 1035.2 -157.264 954.247 -217.98C873.3 -278.689 762.62 -315.5 641.429 -315.5V-265.5ZM245.25 25.3839C245.25 -52.2119 287.128 -124.368 358.61 -177.98C430.101 -231.598 530.009 -265.5 641.429 -265.5V-315.5C520.237 -315.5 409.557 -278.689 328.61 -217.98C247.656 -157.264 195.25 -71.4782 195.25 25.3839H245.25ZM403.479 257.722C305.116 203.203 245.25 117.977 245.25 25.3839H195.25C195.25 141.253 270.005 240.908 379.24 301.454L403.479 257.722ZM361.522 389.854C375.448 366.644 395.266 330.557 414.036 290.112L368.682 269.064C350.706 307.796 331.729 342.325 318.647 364.129L361.522 389.854ZM362.729 409.223C358.352 403.64 357.872 395.937 361.522 389.854L318.647 364.129C304.337 387.979 306.22 418.184 323.38 440.072L362.729 409.223ZM381.25 415.017C374.472 417.11 367.106 414.805 362.729 409.223L323.38 440.072C340.541 461.961 369.424 470.997 396 462.792L381.25 415.017ZM539.316 314.416C507.954 337.704 475.427 360.864 446.755 379.399C417.255 398.469 394.308 410.986 381.25 415.017L396 462.792C416.496 456.464 444.776 440.216 473.9 421.389C503.852 402.026 537.345 378.157 569.124 354.56L539.316 314.416ZM641.429 316.268C612.83 316.268 584.962 314.033 558.12 309.794L550.321 359.182C579.752 363.829 610.228 366.268 641.429 366.268V316.268Z" fill="white"/>
</g>
</g>
<defs>
<linearGradient id="paint0_linear" x1="0" y1="399" x2="1283.92" y2="-0.246025" gradientUnits="userSpaceOnUse">
<stop stop-color="#1E7AE6"/>
<stop offset="1" stop-color="#2FA5F1"/>
</linearGradient>
</defs>
</svg>
