<svg width="20" height="20" viewBox="0 0 20 20" fill="none" xmlns="http://www.w3.org/2000/svg">
<path d="M5.83268 18.3333H3.33268C2.89065 18.3333 2.46673 18.1577 2.15417 17.8451C1.84161 17.5326 1.66602 17.1087 1.66602 16.6666V10.8333C1.66602 10.3913 1.84161 9.96734 2.15417 9.65478C2.46673 9.34222 2.89065 9.16663 3.33268 9.16663H5.83268M11.666 7.49996V4.16663C11.666 3.50358 11.4026 2.8677 10.9338 2.39886C10.4649 1.93002 9.82906 1.66663 9.16602 1.66663L5.83268 9.16663V18.3333H15.2327C15.6346 18.3378 16.0247 18.197 16.3309 17.9366C16.6372 17.6763 16.8391 17.314 16.8993 16.9166L18.0493 9.41663C18.0856 9.17776 18.0695 8.93386 18.0021 8.70184C17.9348 8.46981 17.8178 8.2552 17.6592 8.07289C17.5007 7.89057 17.3044 7.7449 17.084 7.64597C16.8636 7.54705 16.6243 7.49722 16.3827 7.49996H11.666Z" stroke="#637B94" stroke-width="1.3" stroke-linecap="round" stroke-linejoin="round"/>
</svg>
